<svg width="44" height="44" viewBox="0 0 44 44" fill="none" xmlns="http://www.w3.org/2000/svg">
<path d="M20.9212 33.0883L34.2335 19.7759C31.9938 18.8408 29.9597 17.4746 28.2469 15.7549C26.5264 14.0417 25.1595 12.007 24.2241 9.76649L10.9117 23.0788C9.87318 24.1174 9.353 24.6376 8.90662 25.2099C8.37943 25.8854 7.92738 26.6163 7.55846 27.3897C7.24708 28.0448 7.01488 28.7432 6.5505 30.1364L4.09899 37.4855C3.98616 37.822 3.96942 38.1833 4.05065 38.5288C4.13188 38.8742 4.30787 39.1902 4.55882 39.4412C4.80978 39.6921 5.12575 39.8681 5.47124 39.9494C5.81672 40.0306 6.17801 40.0138 6.5145 39.901L13.8636 37.4495C15.2586 36.9851 15.9552 36.7529 16.6103 36.4415C17.3843 36.0725 18.1151 35.6208 18.7901 35.0934C19.3624 34.647 19.8826 34.1268 20.9212 33.0883ZM37.927 16.0825C39.2543 14.7551 40 12.9549 40 11.0777C40 9.20061 39.2543 7.40036 37.927 6.07302C36.5996 4.74569 34.7994 4 32.9223 4C31.0451 4 29.2449 4.74569 27.9175 6.07302L26.321 7.66957L26.3894 7.86936C27.1762 10.1206 28.4637 12.1638 30.1549 13.8451C31.8864 15.5869 34.0012 16.8998 36.3304 17.679L37.927 16.0825Z" fill="#84B2CD"/>
</svg>
