<svg width="44" height="44" viewBox="0 0 44 44" fill="none" xmlns="http://www.w3.org/2000/svg">
<path d="M38.1764 19.4959L38.188 19.5079C38.5069 19.8408 38.9212 20.2733 39.257 20.6823C39.4266 20.8888 39.5866 21.1019 39.7067 21.3026C39.8141 21.482 39.9407 21.7326 39.9407 21.9924C39.9407 22.2508 39.8158 22.5011 39.7092 22.6813C39.59 22.8827 39.4312 23.0966 39.2624 23.3043C38.9241 23.7207 38.5059 24.1605 38.184 24.4966L38.1829 24.4977C37.2587 25.4564 36.2934 26.4763 35.7835 27.71C35.2917 28.8961 35.2658 30.1949 35.2524 31.5616V31.5642L35.2522 31.5748C35.2447 32.0762 35.2355 32.6968 35.1796 33.2405C35.1515 33.5143 35.1101 33.7855 35.0452 34.0218C34.9847 34.2425 34.8856 34.5042 34.6973 34.6915C34.5099 34.878 34.249 34.9765 34.0284 35.0369C33.7922 35.1016 33.5213 35.1431 33.2476 35.1713C32.7003 35.2278 32.0756 35.2373 31.572 35.2448C30.2033 35.2659 28.9042 35.291 27.7167 35.7762C26.4904 36.2865 25.4691 37.2517 24.5042 38.1764L24.4942 38.1859C24.1573 38.5088 23.7219 38.9261 23.3112 39.2635C23.1041 39.4336 22.8909 39.5939 22.6901 39.7141C22.5104 39.8217 22.2599 39.9483 22 39.9483C21.7402 39.9483 21.4896 39.8217 21.3101 39.7143C21.1094 39.5942 20.8964 39.4342 20.6898 39.2645C20.2809 38.9287 19.8484 38.5144 19.5155 38.1956L19.5034 38.184L19.5023 38.1829C18.5436 37.2587 17.5237 36.2934 16.29 35.7835C15.1039 35.2917 13.8051 35.2658 12.4384 35.2524H12.4358L12.4252 35.2522C11.9238 35.2447 11.3033 35.2355 10.7595 35.1796C10.4857 35.1515 10.2145 35.1101 9.97817 35.0452C9.75751 34.9847 9.4958 34.8856 9.30847 34.6973C9.12203 34.5099 9.02346 34.249 8.96307 34.0284C8.89844 33.7922 8.85693 33.5213 8.8287 33.2476C8.77223 32.7003 8.76275 32.0756 8.75523 31.572M38.1764 19.4959C37.2517 18.531 36.2865 17.5096 35.7762 16.2833M38.1764 19.4959L35.7762 16.2833M8.75523 31.572C8.73411 30.2034 8.70901 28.9045 8.22393 27.7171M8.75523 31.572L8.22393 27.7171M12.445 8.76471C11.9394 8.77226 11.3174 8.78414 10.7711 8.84186C10.498 8.87071 10.2283 8.91248 9.99313 8.97622C9.77293 9.0359 9.51552 9.13181 9.32804 9.30991C9.1328 9.4954 9.03034 9.75841 8.96811 9.97825C8.90137 10.214 8.85852 10.4851 8.82915 10.7583C8.77328 11.2783 8.76015 11.8708 8.74933 12.3591C8.74879 12.3837 8.74821 12.408 8.74767 12.4321L8.74761 12.4384C8.73419 13.8051 8.70841 15.1039 8.21654 16.29C7.7066 17.5237 6.74129 18.5436 5.81709 19.5023L5.81599 19.5034L5.80446 19.5155C5.4856 19.8484 5.07127 20.2809 4.73546 20.6898C4.56582 20.8964 4.40577 21.1094 4.28568 21.3101C4.17828 21.4896 4.05172 21.7402 4.05172 22C4.05172 22.2599 4.17832 22.5104 4.28585 22.6901C4.40608 22.8909 4.56637 23.1041 4.73649 23.3112C5.07394 23.7219 5.49116 24.1573 5.81404 24.4942L5.82365 24.5042C6.74835 25.4692 7.71366 26.4906 8.22393 27.7171M12.445 8.76471C13.8135 8.7436 15.1125 8.71849 16.3 8.23341M12.445 8.76471L16.3 8.23341M35.2448 12.428C35.2373 11.9244 35.2278 11.2997 35.1713 10.7524C35.1431 10.4787 35.1016 10.2078 35.0369 9.97164C34.9765 9.75102 34.878 9.4901 34.6915 9.3027C34.5042 9.11441 34.2425 9.01528 34.0218 8.95475C33.7855 8.88994 33.5143 8.84849 33.2405 8.82037C32.6967 8.76454 32.0762 8.75528 31.5748 8.7478L31.5642 8.74763L31.5616 8.74761C30.1949 8.73419 28.8961 8.70841 27.71 8.21654C26.4763 7.7066 25.4564 6.74129 24.4977 5.81709L24.4966 5.81599L24.4845 5.80446C24.1516 5.4856 23.7191 5.07127 23.3102 4.73546C23.1036 4.56582 22.8906 4.40577 22.6899 4.28568C22.5104 4.17828 22.2598 4.05172 22 4.05172C21.74 4.05172 21.4894 4.17838 21.3096 4.28634C21.1087 4.40699 20.8957 4.56788 20.6892 4.73909C20.2764 5.08135 19.8425 5.50433 19.5093 5.83653C18.5454 6.7602 17.5249 7.72377 16.3 8.23341M35.2448 12.428C35.2659 13.7967 35.291 15.0958 35.7762 16.2833M35.2448 12.428L35.7762 16.2833M39.0641 14.9313C39.2085 15.2797 39.481 15.6453 39.7698 15.986C40.0653 16.3346 40.4156 16.6998 40.7469 17.0452C42.0619 18.4164 43.5 19.9474 43.5 22C43.5 24.0526 42.0619 25.5836 40.7469 26.9548C40.4156 27.3002 40.0653 27.6654 39.7698 28.014C39.481 28.3547 39.2086 28.7201 39.0642 29.0685C38.93 29.3927 38.8729 29.8361 38.8422 30.2583C38.8105 30.6936 38.8033 31.1758 38.7967 31.6107L38.7966 31.616C38.7618 33.5515 38.7115 35.6908 37.2018 37.2022C35.6924 38.7133 33.551 38.7676 31.6175 38.7966L31.6107 38.7967C31.1758 38.8033 30.6936 38.8105 30.2583 38.8422C29.8361 38.8729 29.3929 38.9299 29.0687 39.0641C28.7203 39.2085 28.3547 39.481 28.014 39.7698C27.6654 40.0653 27.3002 40.4156 26.9548 40.7469C25.5841 42.0615 24.0434 43.5 22 43.5C19.9565 43.5 18.4165 42.0617 17.0447 40.7559C16.6994 40.4247 16.3344 40.0747 15.986 39.7793C15.6453 39.4905 15.2799 39.2181 14.9315 39.0736C14.6073 38.9393 14.1639 38.8824 13.7417 38.8517C13.3064 38.82 12.8242 38.8128 12.3893 38.8062L12.384 38.8061C10.4485 38.7713 8.30924 38.7209 6.79784 37.2113C5.28672 35.7018 5.23239 33.5605 5.20339 31.627L5.20329 31.6202C5.19673 31.1853 5.18946 30.7031 5.1578 30.2678C5.1271 29.8456 5.07014 29.4023 4.93593 29.0782C4.79147 28.7298 4.51903 28.3642 4.23021 28.0235C3.93486 27.6751 3.58491 27.3102 3.25379 26.965C1.9382 25.5835 0.5 24.0435 0.5 22C0.5 19.9566 1.93853 18.4159 3.25309 17.0452C3.58439 16.6998 3.93468 16.3346 4.23021 15.986C4.51903 15.6453 4.79138 15.2799 4.93584 14.9315C5.07005 14.6073 5.1271 14.1639 5.1578 13.7417C5.18946 13.3064 5.19673 12.8242 5.20329 12.3893L5.20335 12.385L5.20337 12.3837C5.24207 10.449 5.29576 8.31645 6.80283 6.80083C8.3082 5.28692 10.4466 5.24212 12.385 5.20335L12.3893 5.20329C12.8242 5.19673 13.3064 5.18946 13.7417 5.1578C14.1639 5.1271 14.6071 5.07014 14.9313 4.93593C15.2797 4.79147 15.6453 4.51903 15.986 4.23021C16.3346 3.93468 16.6997 3.58449 17.0451 3.25319C18.4163 1.93819 19.9474 0.5 22 0.5C24.0526 0.5 25.5836 1.93809 26.9548 3.25309C27.3002 3.58439 27.6654 3.93468 28.014 4.23021C28.3547 4.51903 28.7201 4.79138 29.0685 4.93584C29.3927 5.07005 29.8361 5.1271 30.2583 5.1578C30.6936 5.18946 31.1758 5.19673 31.6107 5.20329L31.616 5.20337C33.5514 5.23821 35.6909 5.28868 37.2022 6.79824C38.7133 8.30765 38.7676 10.449 38.7966 12.3825L38.7967 12.3893C38.8033 12.8242 38.8105 13.3064 38.8422 13.7417C38.8729 14.1639 38.9299 14.6071 39.0641 14.9313ZM30.842 16.1908L30.8434 16.1923C31.009 16.3573 31.1404 16.5533 31.23 16.7692C31.3196 16.985 31.3658 17.2164 31.3658 17.4502C31.3658 17.6839 31.3196 17.9153 31.23 18.1312C31.1404 18.347 31.009 18.5431 30.8434 18.7081L20.2221 29.3294C20.0571 29.4949 19.8605 29.6269 19.6446 29.7165C19.4288 29.8062 19.1973 29.8523 18.9636 29.8523C18.7299 29.8523 18.4985 29.8062 18.2826 29.7165C18.0667 29.6269 17.8707 29.4955 17.7057 29.33L13.1534 24.7777C12.9881 24.6124 12.857 24.4162 12.7676 24.2002C12.6781 23.9843 12.6321 23.7529 12.6321 23.5191C12.6321 23.2854 12.6781 23.054 12.7676 22.838C12.857 22.6221 12.9881 22.4259 13.1534 22.2606C13.3187 22.0954 13.5149 21.9643 13.7308 21.8748C13.9467 21.7854 14.1782 21.7393 14.4119 21.7393C14.6456 21.7393 14.8771 21.7854 15.093 21.8748C15.3089 21.9643 15.5051 22.0954 15.6704 22.2606L18.6122 25.1986L18.9658 25.5517L19.3191 25.1983L28.3292 16.1864C28.4944 16.0216 28.6905 15.8909 28.9062 15.8019C29.122 15.713 29.3531 15.6674 29.5865 15.6678C29.8199 15.6682 30.0509 15.7146 30.2663 15.8043C30.4817 15.8941 30.6774 16.0254 30.842 16.1908Z" stroke="#84B2CD"/>
</svg>
