<svg width="44" height="44" viewBox="0 0 44 44" fill="none" xmlns="http://www.w3.org/2000/svg">
<path d="M41.1078 16.6991C40.4402 16.0031 39.7517 15.2843 39.526 14.74C39.325 14.2545 39.3098 13.255 39.2966 12.375C39.2681 10.4784 39.2321 8.11914 37.5555 6.44448C35.879 4.76983 33.5216 4.73759 31.625 4.70345C30.745 4.69017 29.7455 4.675 29.26 4.47397C28.7157 4.24828 27.9969 3.55983 27.3009 2.89224C25.9581 1.60448 24.2853 0 22 0C19.7147 0 18.0419 1.60448 16.6991 2.89224C16.0031 3.55983 15.2843 4.24828 14.74 4.47397C14.2545 4.675 13.255 4.69017 12.375 4.70345C10.4784 4.74138 8.11914 4.76793 6.44828 6.44828C4.77741 8.12862 4.74138 10.4784 4.70345 12.375C4.69017 13.255 4.675 14.2545 4.47397 14.74C4.24828 15.2843 3.55983 16.0031 2.89224 16.6991C1.60448 18.0419 0 19.7241 0 22C0 24.2759 1.60448 25.9581 2.89224 27.3103C3.55983 28.0064 4.24828 28.7252 4.47397 29.2695C4.675 29.755 4.69017 30.7545 4.70345 31.6345C4.7319 33.531 4.76793 35.8903 6.44448 37.565C8.12103 39.2397 10.4784 39.2719 12.375 39.306C13.255 39.3193 14.2545 39.3345 14.74 39.5355C15.2843 39.7612 16.0031 40.4497 16.6991 41.1172C18.0419 42.3955 19.7241 44 22 44C24.2759 44 25.9581 42.3955 27.3009 41.1078C27.9969 40.4402 28.7157 39.7517 29.26 39.526C29.7455 39.325 30.745 39.3098 31.625 39.2966C33.5216 39.2681 35.8809 39.2321 37.5555 37.5555C39.2302 35.879 39.2624 33.5216 39.2966 31.625C39.3098 30.745 39.325 29.7455 39.526 29.26C39.7517 28.7157 40.4402 27.9969 41.1078 27.3009C42.3955 25.9581 44 24.2853 44 22C44 19.7147 42.3955 18.0419 41.1078 16.6991ZM37.8229 24.1507C36.9088 25.099 35.8733 26.1838 35.3214 27.519C34.7866 28.8086 34.7657 30.2045 34.7524 31.5567C34.7372 32.5733 34.7164 33.9672 34.3447 34.3371C33.9729 34.7069 32.5809 34.7297 31.5643 34.7448C30.2121 34.7657 28.8162 34.7866 27.5266 35.3138C26.199 35.8657 25.1122 36.9012 24.1583 37.8153C23.4755 38.4697 22.4552 39.4483 22 39.4483C21.5448 39.4483 20.5245 38.4697 19.8493 37.8229C18.901 36.9088 17.8162 35.8733 16.481 35.3214C15.1914 34.7866 13.7955 34.7657 12.4433 34.7524C11.4267 34.7372 10.0328 34.7164 9.66293 34.3447C9.2931 33.9729 9.27034 32.5809 9.25517 31.5643C9.23431 30.2121 9.21345 28.8162 8.68621 27.5266C8.13431 26.199 7.09879 25.1122 6.18466 24.1583C5.53034 23.4755 4.55172 22.4552 4.55172 22C4.55172 21.5448 5.53034 20.5245 6.17707 19.8493C7.09121 18.901 8.12672 17.8162 8.67862 16.481C9.21345 15.1914 9.23431 13.7955 9.24759 12.4433C9.27034 11.4267 9.2931 10.0328 9.67241 9.67241C10.0517 9.31207 11.4362 9.27983 12.4528 9.26466C13.805 9.24379 15.2009 9.22293 16.4905 8.69569C17.8181 8.14379 18.9048 7.10828 19.8588 6.19414C20.5245 5.53034 21.5448 4.55172 22 4.55172C22.4552 4.55172 23.4755 5.53034 24.1507 6.17707C25.099 7.09121 26.1838 8.12672 27.519 8.67862C28.8086 9.21345 30.2045 9.23431 31.5567 9.24759C32.5733 9.26276 33.9672 9.28362 34.3371 9.65534C34.7069 10.0271 34.7297 11.4191 34.7448 12.4357C34.7657 13.7879 34.7866 15.1838 35.3138 16.4734C35.8657 17.801 36.9012 18.8878 37.8153 19.8417C38.4621 20.5169 39.4407 21.5372 39.4407 21.9924C39.4407 22.4476 38.4697 23.4755 37.8229 24.1507ZM31.1964 15.8381C31.4086 16.0495 31.5769 16.3008 31.6918 16.5774C31.8066 16.854 31.8658 17.1506 31.8658 17.4502C31.8658 17.7497 31.8066 18.0463 31.6918 18.3229C31.5769 18.5996 31.4086 18.8508 31.1964 19.0622L20.5757 29.6829C20.3643 29.8951 20.113 30.0634 19.8364 30.1783C19.5597 30.2932 19.2632 30.3523 18.9636 30.3523C18.6641 30.3523 18.3675 30.2932 18.0909 30.1783C17.8142 30.0634 17.563 29.8951 17.3516 29.6829L12.7998 25.1312C12.5881 24.9195 12.4202 24.6682 12.3056 24.3916C12.1911 24.115 12.1321 23.8185 12.1321 23.5191C12.1321 23.2197 12.1911 22.9233 12.3056 22.6467C12.4202 22.3701 12.5881 22.1188 12.7998 21.9071C13.0115 21.6954 13.2629 21.5274 13.5395 21.4129C13.816 21.2983 14.1125 21.2393 14.4119 21.2393C14.7113 21.2393 15.0077 21.2983 15.2843 21.4129C15.5609 21.5274 15.8123 21.6954 16.024 21.9071L18.9655 24.8448L27.976 15.8324C28.1878 15.6212 28.4391 15.4538 28.7156 15.3397C28.992 15.2257 29.2883 15.1672 29.5874 15.1678C29.8865 15.1683 30.1825 15.2278 30.4586 15.3428C30.7347 15.4578 30.9854 15.6261 31.1964 15.8381Z" fill="#84B2CD"/>
</svg>
