<svg width="32" height="32" viewBox="0 0 32 32" fill="none" xmlns="http://www.w3.org/2000/svg">
<g clip-path="url(#clip0_448_1690)">
<path fill-rule="evenodd" clip-rule="evenodd" d="M30.9586 30.9586C31.6254 30.2918 32 29.3874 32 28.4444V3.55556C32 2.61256 31.6254 1.70819 30.9586 1.0414C30.2918 0.374602 29.3874 0 28.4444 0H3.55556C2.61256 0 1.70819 0.374602 1.0414 1.0414C0.374602 1.70819 0 2.61256 0 3.55556V28.4444C0 29.3874 0.374602 30.2918 1.0414 30.9586C1.70819 31.6254 2.61256 32 3.55556 32H28.4444C29.3874 32 30.2918 31.6254 30.9586 30.9586ZM13.2722 6.15466C11.8935 6.15466 11.122 7.17422 11.122 8.304L11.1211 23.7938C11.1211 25.1724 12.0029 25.9431 13.1886 25.9431C14.3744 25.9431 15.2562 25.1724 15.2562 23.7938V17.7849H19.5282C20.8509 17.7849 21.5122 16.8204 21.5122 15.856C21.5122 14.9191 20.8509 13.9822 19.5282 13.9822H15.2562V9.95822H20.3273C21.5673 9.95822 22.1744 8.99377 22.1744 8.05689C22.1744 7.09155 21.5406 6.15466 20.3273 6.15466H13.2722Z" fill="#84B2CD"/>
</g>
<defs>
<clipPath id="clip0_448_1690">
<rect width="32" height="32" fill="white"/>
</clipPath>
</defs>
</svg>
