<svg width="16" height="17" viewBox="0 0 16 17" fill="none" xmlns="http://www.w3.org/2000/svg">
<path fill-rule="evenodd" clip-rule="evenodd" d="M3.57987 0.743838C6.51746 0.418721 9.48205 0.418721 12.4196 0.743838C14.144 0.936057 15.5361 2.29102 15.7381 4.02288C16.0873 6.99663 16.0873 10.0024 15.7381 12.9771C15.5352 14.7071 14.143 16.063 12.4196 16.2562C9.48205 16.5813 6.51746 16.5813 3.57987 16.2562C1.85552 16.063 0.46339 14.7071 0.261413 12.9771C-0.0871377 10.0022 -0.0871377 6.99685 0.261413 4.02194C0.46339 2.29102 1.85646 0.936057 3.57987 0.742895M8.94357 4.72957C8.94363 4.85331 8.91928 4.97585 8.8719 5.09019C8.82453 5.20453 8.75506 5.30844 8.66746 5.39598C8.57987 5.48352 8.47586 5.55298 8.36137 5.60039C8.24689 5.6478 8.12417 5.67223 8.00022 5.67229C7.74991 5.67242 7.5098 5.57326 7.33271 5.39665C7.15562 5.22003 7.05606 4.98041 7.05594 4.73051C7.05594 4.48061 7.15538 4.24094 7.33237 4.06424C7.50937 3.88753 7.74944 3.78826 7.99975 3.78826C8.25007 3.78826 8.49013 3.88753 8.66713 4.06424C8.84413 4.24094 8.94357 4.47967 8.94357 4.72957ZM7.99975 7.32171C8.18749 7.32171 8.36754 7.39616 8.50029 7.52869C8.63303 7.66122 8.70761 7.84097 8.70761 8.0284V12.7397C8.70761 12.9271 8.63303 13.1068 8.50029 13.2394C8.36754 13.3719 8.18749 13.4464 7.99975 13.4464C7.81202 13.4464 7.63197 13.3719 7.49922 13.2394C7.36647 13.1068 7.29189 12.9271 7.29189 12.7397V8.0284C7.29189 7.84097 7.36647 7.66122 7.49922 7.52869C7.63197 7.39616 7.81202 7.32171 7.99975 7.32171Z" fill="#3A2811"/>
</svg>
