<svg width="32" height="32" viewBox="0 0 32 32" fill="none" xmlns="http://www.w3.org/2000/svg">
<path d="M23.1111 0C25.4686 0 27.7295 0.936505 29.3965 2.6035C31.0635 4.27049 32 6.53141 32 8.88889V23.1111C32 25.4686 31.0635 27.7295 29.3965 29.3965C27.7295 31.0635 25.4686 32 23.1111 32H8.88889C6.53141 32 4.27049 31.0635 2.6035 29.3965C0.936505 27.7295 0 25.4686 0 23.1111V8.88889C0 6.53141 0.936505 4.27049 2.6035 2.6035C4.27049 0.936505 6.53141 0 8.88889 0H23.1111ZM16 8.88889C14.114 8.88889 12.3053 9.63809 10.9717 10.9717C9.63809 12.3053 8.88889 14.114 8.88889 16C8.88889 17.886 9.63809 19.6947 10.9717 21.0283C12.3053 22.3619 14.114 23.1111 16 23.1111C17.886 23.1111 19.6947 22.3619 21.0283 21.0283C22.3619 19.6947 23.1111 17.886 23.1111 16C23.1111 14.114 22.3619 12.3053 21.0283 10.9717C19.6947 9.63809 17.886 8.88889 16 8.88889ZM16 12.4444C16.943 12.4444 17.8474 12.819 18.5142 13.4858C19.181 14.1526 19.5556 15.057 19.5556 16C19.5556 16.943 19.181 17.8474 18.5142 18.5142C17.8474 19.181 16.943 19.5556 16 19.5556C15.057 19.5556 14.1526 19.181 13.4858 18.5142C12.819 17.8474 12.4444 16.943 12.4444 16C12.4444 15.057 12.819 14.1526 13.4858 13.4858C14.1526 12.819 15.057 12.4444 16 12.4444ZM24 6.22222C23.5285 6.22222 23.0763 6.40952 22.7429 6.74292C22.4095 7.07632 22.2222 7.5285 22.2222 8C22.2222 8.4715 22.4095 8.92368 22.7429 9.25708C23.0763 9.59048 23.5285 9.77778 24 9.77778C24.4715 9.77778 24.9237 9.59048 25.2571 9.25708C25.5905 8.92368 25.7778 8.4715 25.7778 8C25.7778 7.5285 25.5905 7.07632 25.2571 6.74292C24.9237 6.40952 24.4715 6.22222 24 6.22222Z" fill="#84B2CD"/>
</svg>
