<svg width="32" height="40" viewBox="0 0 32 40" fill="none" xmlns="http://www.w3.org/2000/svg">
<path d="M7.38969 5.82636C6.46439 5.82636 5.71428 6.57568 5.71428 7.5V26.4833C5.71428 27.9657 7.50072 28.7163 8.56132 27.6797L12.4 23.928C13.2511 23.2957 14.6389 22.0512 15.7288 22.0512C16.8188 22.0512 18.1474 23.2987 18.9985 23.931L23.4915 27.958C24.5703 28.9247 26.2857 28.16 26.2857 26.7121V7.5C26.2857 6.57568 25.5357 5.82636 24.6103 5.82636H7.38969ZM1.6 0H30.4C30.8244 0 31.2313 0.156556 31.5314 0.435228C31.8315 0.7139 32 1.09186 32 1.48596V38.5162C31.9995 38.7958 31.9142 39.0696 31.7537 39.3061C31.5932 39.5428 31.3642 39.7324 31.0928 39.8536C30.8214 39.9746 30.5186 40.0221 30.2196 39.9905C29.9203 39.959 29.6369 39.8497 29.4016 39.6751L16.9984 30.4623C16.7149 30.252 16.3628 30.1374 16 30.1374C15.6372 30.1374 15.2851 30.252 15.0016 30.4623L2.5984 39.6751C2.36314 39.8497 2.07963 39.959 1.78049 39.9905C1.48134 40.0221 1.17867 39.9746 0.907282 39.8536C0.63589 39.7324 0.406782 39.5428 0.246289 39.3061C0.0857953 39.0696 0.000428586 38.7958 0 38.5162V1.48596C0 1.09186 0.168571 0.7139 0.468629 0.435228C0.768687 0.156556 1.17565 0 1.6 0Z" fill="#84B2CD"/>
</svg>
