<svg width="44" height="44" viewBox="0 0 44 44" fill="none" xmlns="http://www.w3.org/2000/svg">
<path d="M7.6 2H36.4C36.8243 2 37.2313 2.15656 37.5314 2.43523C37.8314 2.7139 38 3.09186 38 3.48596V40.5162C37.9996 40.7958 37.9142 41.0696 37.7537 41.3062C37.5932 41.5427 37.3641 41.7325 37.0927 41.8535C36.8213 41.9746 36.5187 42.0221 36.2195 41.9905C35.9204 41.959 35.6369 41.8497 35.4016 41.6752L22.9984 32.4622C22.7149 32.252 22.3628 32.1374 22 32.1374C21.6372 32.1374 21.2851 32.252 21.0016 32.4622L8.5984 41.6752C8.36314 41.8497 8.07964 41.959 7.78049 41.9905C7.48134 42.0221 7.17867 41.9746 6.90728 41.8535C6.63589 41.7325 6.40678 41.5427 6.24629 41.3062C6.0858 41.0696 6.00043 40.7958 6 40.5162V3.48596C6 3.09186 6.16857 2.7139 6.46863 2.43523C6.76869 2.15656 7.17565 2 7.6 2Z" fill="#84B2CD"/>
</svg>
