<svg width="44" height="41" viewBox="0 0 44 41" fill="none" xmlns="http://www.w3.org/2000/svg">
<path fill-rule="evenodd" clip-rule="evenodd" d="M30.8101 0C27.5424 0.00583001 24.3968 1.26407 21.9997 3.52414C19.5049 1.16555 16.1976 -0.0980936 12.794 0.00676844C9.39039 0.11163 6.16431 1.57656 3.8142 4.08442C-1.27144 9.44977 -1.27144 18.0935 3.8142 23.4609L18.7437 39.2092C19.5729 40.0824 20.7072 40.5873 21.9001 40.6143C23.093 40.6412 24.2482 40.1879 25.1146 39.3529C28.5678 35.9703 31.8988 32.3715 35.1889 28.8169L35.292 28.7055L35.5631 28.4126C37.1071 26.7447 38.6441 25.0843 40.1832 23.4609C42.6392 20.8553 44.0073 17.3823 44 13.7716C44.0073 10.161 42.6392 6.68794 40.1832 4.08233C37.7151 1.4788 34.3424 0 30.8101 0ZM28.3066 7C26.1529 7.00359 23.5799 8.60886 22 10C21.9104 9.92095 21.8208 9.84142 21.731 9.76174C20.171 8.37799 18.5535 6.94314 16.4324 7.00417C14.1891 7.06871 12.0628 7.97042 10.5139 9.51408C7.162 12.8166 7.162 18.1371 10.5139 21.4409L20.3538 31.1344C20.9003 31.6719 21.6479 31.9827 22.4341 31.9993C23.2203 32.0159 23.9817 31.7368 24.5528 31.2229C26.8288 29.1408 29.0242 26.9256 31.1927 24.7376L31.2606 24.6691L31.4386 24.4895C32.4565 23.4626 33.4698 22.4403 34.4843 21.4409C36.1031 19.8371 37.0048 17.6993 37 15.4768C37.0048 13.2544 36.1031 11.1166 34.4843 9.5128C32.8576 7.91025 30.6347 7 28.3066 7Z" fill="#84B2CD"/>
</svg>
