<svg width="44" height="41" viewBox="0 0 44 41" fill="none" xmlns="http://www.w3.org/2000/svg">
<path fill-rule="evenodd" clip-rule="evenodd" d="M21.9997 3.52414C24.3968 1.26407 27.5424 0.00583001 30.8101 0C34.3424 0 37.7151 1.4788 40.1832 4.08233C42.6392 6.68794 44.0073 10.161 44 13.7716C44.0073 17.3823 42.6392 20.8553 40.1832 23.4609C38.5541 25.1793 36.9272 26.9392 35.292 28.7055C31.9684 32.2963 28.6039 35.935 25.1146 39.3529C24.2482 40.1879 23.093 40.6412 21.9001 40.6143C20.7072 40.5873 19.5729 40.0824 18.7437 39.2092L3.81423 23.4609C-1.27141 18.0935 -1.27141 9.44977 3.81423 4.08442C6.16434 1.57656 9.39042 0.11163 12.794 0.00676844C16.1976 -0.0980936 19.5049 1.16555 21.9997 3.52414Z" fill="#84B2CD"/>
</svg>
