<svg width="32" height="32" viewBox="0 0 32 32" fill="none" xmlns="http://www.w3.org/2000/svg">
<g clip-path="url(#clip0_448_1707)">
<path d="M14.816 20.8001C14.5346 20.3103 14.3878 19.7548 14.3906 19.1899C14.3935 18.6251 14.5457 18.071 14.832 17.5841C16.0709 17.4833 17.2224 16.9058 18.0442 15.9732C18.8659 15.0405 19.2938 13.8255 19.2379 12.5837C19.1819 11.342 18.6464 10.1704 17.7441 9.31546C16.8417 8.46054 15.643 7.989 14.4 8.00007H8C6.72696 8.00007 5.50606 8.50578 4.60589 9.40596C3.70571 10.3061 3.2 11.527 3.2 12.8001C3.2 14.0731 3.70571 15.294 4.60589 16.1942C5.50606 17.0944 6.72696 17.6001 8 17.6001H8.128C7.95077 18.6594 7.95077 19.7408 8.128 20.8001H8C5.87827 20.8001 3.84344 19.9572 2.34315 18.4569C0.842855 16.9566 0 14.9218 0 12.8001C0 10.6783 0.842855 8.64351 2.34315 7.14322C3.84344 5.64292 5.87827 4.80007 8 4.80007H14.4C16.5217 4.74491 18.5785 5.53485 20.1178 6.99614C21.6571 8.45742 22.5528 10.4703 22.608 12.5921C22.6632 14.7138 21.8732 16.7705 20.4119 18.3098C18.9506 19.8491 16.9377 20.7449 14.816 20.8001ZM17.184 11.2001C17.4654 11.6898 17.6122 12.2454 17.6094 12.8102C17.6066 13.3751 17.4543 13.9291 17.168 14.4161C15.9291 14.5169 14.7776 15.0944 13.9558 16.027C13.1341 16.9596 12.7062 18.1747 12.7621 19.4164C12.8181 20.6582 13.3536 21.8298 14.2559 22.6847C15.1583 23.5396 16.357 24.0111 17.6 24.0001H24C25.273 24.0001 26.4939 23.4944 27.3941 22.5942C28.2943 21.694 28.8 20.4731 28.8 19.2001C28.8 17.927 28.2943 16.7061 27.3941 15.806C26.4939 14.9058 25.273 14.4001 24 14.4001H23.872C24.0492 13.3408 24.0492 12.2594 23.872 11.2001H24C26.1217 11.2001 28.1566 12.0429 29.6569 13.5432C31.1571 15.0435 32 17.0783 32 19.2001C32 21.3218 31.1571 23.3566 29.6569 24.8569C28.1566 26.3572 26.1217 27.2001 24 27.2001H17.6C16.5494 27.2274 15.5038 27.0475 14.5227 26.6707C13.5416 26.2939 12.6444 25.7276 11.8822 25.004C10.3429 23.5427 9.44716 21.5298 9.392 19.4081C9.33683 17.2863 10.1268 15.2296 11.5881 13.6903C13.0494 12.151 15.0623 11.2552 17.184 11.2001Z" fill="#84B2CD"/>
</g>
<defs>
<clipPath id="clip0_448_1707">
<rect width="32" height="32" fill="white"/>
</clipPath>
</defs>
</svg>
