<svg width="32" height="32" viewBox="0 0 32 32" fill="none" xmlns="http://www.w3.org/2000/svg">
<g clip-path="url(#clip0_448_937)">
<path d="M16 2.66675C19.1826 2.66675 22.2348 3.93103 24.4853 6.18147C26.7357 8.4319 28 11.4842 28 14.6667C28 18.7654 25.7653 22.1201 23.4107 24.5267C22.234 25.7159 20.9504 26.7943 19.576 27.7481L19.008 28.1347L18.7413 28.3121L18.2387 28.6321L17.7907 28.9054L17.236 29.2281C16.8593 29.4425 16.4334 29.5552 16 29.5552C15.5666 29.5552 15.1407 29.4425 14.764 29.2281L14.2093 28.9054L13.516 28.4787L13.26 28.3121L12.7133 27.9481C11.2306 26.9445 9.84942 25.7986 8.58933 24.5267C6.23467 22.1187 4 18.7654 4 14.6667C4 11.4842 5.26428 8.4319 7.51472 6.18147C9.76515 3.93103 12.8174 2.66675 16 2.66675ZM16 10.6667C15.4747 10.6667 14.9546 10.7702 14.4693 10.9712C13.984 11.1722 13.543 11.4669 13.1716 11.8383C12.8001 12.2098 12.5055 12.6507 12.3045 13.136C12.1035 13.6213 12 14.1415 12 14.6667C12 15.192 12.1035 15.7122 12.3045 16.1975C12.5055 16.6828 12.8001 17.1237 13.1716 17.4952C13.543 17.8666 13.984 18.1612 14.4693 18.3623C14.9546 18.5633 15.4747 18.6667 16 18.6667C17.0609 18.6667 18.0783 18.2453 18.8284 17.4952C19.5786 16.745 20 15.7276 20 14.6667C20 13.6059 19.5786 12.5885 18.8284 11.8383C18.0783 11.0882 17.0609 10.6667 16 10.6667Z" fill="#84B2CD"/>
</g>
<defs>
<clipPath id="clip0_448_937">
<rect width="32" height="32" fill="white"/>
</clipPath>
</defs>
</svg>
