<svg width="32" height="32" viewBox="0 0 32 32" fill="none" xmlns="http://www.w3.org/2000/svg">
<path fill-rule="evenodd" clip-rule="evenodd" d="M32 16C32 24.8368 24.8368 32 16 32C13.44 32 11.0208 31.3984 8.87681 30.3296C8.31046 30.0369 7.65666 29.9612 7.03842 30.1168L3.47682 31.0704C3.12429 31.1645 2.75322 31.1641 2.40086 31.0695C2.0485 30.9748 1.72724 30.7891 1.46932 30.531C1.21141 30.273 1.02592 29.9516 0.931468 29.5992C0.837018 29.2467 0.836932 28.8757 0.931219 28.5232L1.88322 24.9616C2.03806 24.3437 1.96181 23.6905 1.66882 23.1248C0.567431 20.9115 -0.00389649 18.4722 2.00006e-05 16C2.00006e-05 7.1632 7.16322 0 16 0C24.8368 0 32 7.1632 32 16ZM16 8.4C16.3183 8.4 16.6235 8.52643 16.8485 8.75147C17.0736 8.97652 17.2 9.28174 17.2 9.6V9.616C18.9424 10.056 20.4 11.4288 20.4 13.3328C20.4 13.6511 20.2736 13.9563 20.0485 14.1813C19.8235 14.4064 19.5183 14.5328 19.2 14.5328C18.8817 14.5328 18.5765 14.4064 18.3515 14.1813C18.1264 13.9563 18 13.6511 18 13.3328C18 12.7184 17.3184 11.8672 16 11.8672C14.6816 11.8672 14 12.7184 14 13.3328C14 13.9472 14.6816 14.8 16 14.8C18.216 14.8 20.4 16.336 20.4 18.6672C20.4 20.5712 18.9424 21.9456 17.2 22.384V22.4C17.2 22.7183 17.0736 23.0235 16.8485 23.2485C16.6235 23.4736 16.3183 23.6 16 23.6C15.6817 23.6 15.3765 23.4736 15.1515 23.2485C14.9264 23.0235 14.8 22.7183 14.8 22.4V22.384C13.0576 21.9456 11.6 20.5712 11.6 18.6672C11.6 18.3489 11.7264 18.0437 11.9515 17.8187C12.1765 17.5936 12.4818 17.4672 12.8 17.4672C13.1183 17.4672 13.4235 17.5936 13.6485 17.8187C13.8736 18.0437 14 18.3489 14 18.6672C14 19.2816 14.6816 20.1328 16 20.1328C17.3184 20.1328 18 19.2816 18 18.6672C18 18.0528 17.3184 17.2 16 17.2C13.784 17.2 11.6 15.664 11.6 13.3328C11.6 11.4288 13.0576 10.056 14.8 9.616V9.6C14.8 9.28174 14.9264 8.97652 15.1515 8.75147C15.3765 8.52643 15.6817 8.4 16 8.4Z" fill="#84B2CD"/>
</svg>
