<svg width="44" height="46" viewBox="0 0 44 46" fill="none" xmlns="http://www.w3.org/2000/svg">
<mask id="path-1-inside-1_454_1820" fill="white">
<path fill-rule="evenodd" clip-rule="evenodd" d="M22.0566 1.07412C22.4557 5.11269 24.97 7.21212 26.7143 7.80926C27.5 8.07641 28.27 7.06441 28.2857 6.24412V4.71355C28.2857 3.86184 29.2757 2.89069 30.0756 3.20498C37.422 6.06026 44 12.1778 44 20.4278C44 32.4336 25.96 43.6457 22.5516 45.4293C22.3826 45.5221 22.1928 45.5708 22 45.5708C21.8072 45.5708 21.6174 45.5221 21.4484 45.4293C18.0541 43.6457 0 32.4336 0 20.4278C0 13.424 2.73429 7.17441 7.85714 4.87069C9.04357 4.33798 9.35 5.41912 9.647 6.47355C9.79943 7.01412 9.94871 7.54684 10.2143 7.85641C10.7423 8.47241 11.517 8.03084 11.8847 7.29069C13.1167 4.82826 16.1653 -0.124879 20.8387 0.00240687C21.4641 0.0181212 21.9921 0.473835 22.0566 1.07412ZM22.3491 15.9075C23.7188 14.6638 25.5163 13.9715 27.3835 13.9683C29.402 13.9683 31.3292 14.782 32.7396 16.2146C34.143 17.6484 34.9248 19.5595 34.9206 21.5463C34.9248 23.5331 34.143 25.4442 32.7396 26.878C31.8087 27.8235 30.879 28.792 29.9446 29.7639C28.0454 31.7397 24.1325 35.6182 24.1325 35.6182C23.6374 36.0776 22.9738 36.3316 22.2921 36.3168C21.6104 36.302 20.9623 36.0242 20.4885 35.5437L11.9573 26.878C9.05126 23.9245 9.05126 19.1681 11.9573 16.2158C13.3003 14.8358 15.1437 14.0297 17.0886 13.972C19.0336 13.9143 20.9234 14.6096 22.3491 15.9075Z"/>
</mask>
<path d="M22.0566 1.07412L23.0518 0.975764L23.0509 0.967404L22.0566 1.07412ZM26.7143 7.80926L26.3904 8.75536L26.3924 8.75604L26.7143 7.80926ZM28.2857 6.24412L29.2855 6.26327L29.2857 6.2537V6.24412H28.2857ZM30.0756 3.20498L29.7099 4.13571L29.7133 4.13705L30.0756 3.20498ZM22.5516 45.4293L22.0879 44.5432L22.079 44.5479L22.0701 44.5528L22.5516 45.4293ZM21.4484 45.4293L21.9299 44.5528L21.9218 44.5483L21.9136 44.544L21.4484 45.4293ZM7.85714 4.87069L7.44753 3.95843L7.44701 3.95867L7.85714 4.87069ZM9.647 6.47355L8.68445 6.74467L8.68453 6.74494L9.647 6.47355ZM10.2143 7.85641L10.9735 7.20562L10.9733 7.2053L10.2143 7.85641ZM11.8847 7.29069L10.9904 6.84325L10.9892 6.84576L11.8847 7.29069ZM20.8387 0.00240687L20.8115 1.00204L20.8136 1.00209L20.8387 0.00240687ZM22.3491 15.9075L21.6759 16.6469L22.3481 17.259L23.0212 16.6478L22.3491 15.9075ZM27.3835 13.9683V12.9683L27.3818 12.9683L27.3835 13.9683ZM32.7396 16.2146L33.4542 15.5151L33.4522 15.5131L32.7396 16.2146ZM34.9206 21.5463L33.9206 21.5442L33.9206 21.5484L34.9206 21.5463ZM32.7396 26.878L33.4522 27.5795L33.4542 27.5775L32.7396 26.878ZM29.9446 29.7639L29.2237 29.0708L29.2237 29.0709L29.9446 29.7639ZM24.1325 35.6182L24.8127 36.3511L24.8248 36.34L24.8364 36.3284L24.1325 35.6182ZM20.4885 35.5437L19.7758 36.2452L19.7764 36.2458L20.4885 35.5437ZM11.9573 26.878L11.2445 27.5793L11.2447 27.5795L11.9573 26.878ZM11.9573 16.2158L12.67 16.9173L12.674 16.9132L11.9573 16.2158ZM21.0614 1.17247C21.5009 5.61967 24.2941 8.03771 26.3904 8.75536L27.0382 6.86317C25.6459 6.38653 23.4105 4.60571 23.0517 0.975768L21.0614 1.17247ZM26.3924 8.75604C27.3182 9.07082 28.1001 8.57887 28.5289 8.10693C28.9648 7.62709 29.2725 6.94293 29.2855 6.26327L27.2859 6.22497C27.2848 6.2831 27.2683 6.37508 27.2223 6.48457C27.1768 6.59265 27.1141 6.68998 27.0486 6.76203C27.0168 6.79708 26.9883 6.82172 26.966 6.83787C26.9551 6.84579 26.9464 6.8511 26.9403 6.85448C26.9342 6.85785 26.9311 6.85904 26.9311 6.85903C26.9401 6.85559 26.9862 6.84549 27.0362 6.86249L26.3924 8.75604ZM29.2857 6.24412V4.71355H27.2857V6.24412H29.2857ZM29.2857 4.71355C29.2857 4.69026 29.2942 4.62542 29.3432 4.52967C29.3911 4.43601 29.4629 4.34267 29.5464 4.26826C29.6314 4.19241 29.7026 4.15884 29.7397 4.14798C29.7696 4.1392 29.75 4.15149 29.7099 4.13571L30.4413 2.27425C29.547 1.92286 28.707 2.33696 28.215 2.77577C27.7143 3.22246 27.2857 3.9317 27.2857 4.71355H29.2857ZM29.7133 4.13705C36.8726 6.91961 43 12.7677 43 20.4278H45C45 11.588 37.9714 5.20092 30.4378 2.2729L29.7133 4.13705ZM43 20.4278C43 23.1785 41.9651 25.9453 40.2821 28.6151C38.6006 31.2824 36.3066 33.7977 33.8781 36.0248C29.0162 40.4835 23.7285 43.6848 22.0879 44.5432L23.0152 46.3153C24.7831 45.3902 30.2196 42.0936 35.2298 37.4989C37.7374 35.1993 40.1663 32.5491 41.9739 29.6817C43.7799 26.8169 45 23.6801 45 20.4278H43ZM22.0701 44.5528C22.0486 44.5646 22.0245 44.5708 22 44.5708V46.5708C22.3612 46.5708 22.7165 46.4796 23.0331 46.3057L22.0701 44.5528ZM22 44.5708C21.9755 44.5708 21.9514 44.5646 21.9299 44.5528L20.9669 46.3057C21.2835 46.4796 21.6388 46.5708 22 46.5708V44.5708ZM21.9136 44.544C20.2787 43.6849 14.9907 40.4833 10.1271 36.0247C7.69765 33.7975 5.40229 31.2822 3.71978 28.6149C2.03562 25.945 1 23.1783 1 20.4278H-1C-1 23.6803 0.221151 26.8172 2.02821 29.6819C3.83693 32.5493 6.26724 35.1995 8.7756 37.499C13.7877 42.0937 19.2239 45.39 20.9833 46.3145L21.9136 44.544ZM1 20.4278C1 13.6062 3.66295 7.85325 8.26727 5.78272L7.44701 3.95867C1.80562 6.49556 -1 13.2418 -1 20.4278H1ZM8.26675 5.78295C8.43999 5.70517 8.45873 5.74151 8.38596 5.72591C8.2998 5.70744 8.27036 5.65773 8.2975 5.69248C8.33575 5.74146 8.39624 5.84769 8.4707 6.04949C8.54362 6.24713 8.608 6.47322 8.68445 6.74467L10.6095 6.20243C10.5375 5.94666 10.4522 5.6422 10.3471 5.35721C10.2435 5.07639 10.0975 4.74793 9.87372 4.46141C9.63882 4.16065 9.29176 3.87465 8.80518 3.77034C8.33199 3.6689 7.86751 3.76986 7.44753 3.95843L8.26675 5.78295ZM8.68453 6.74494C8.75788 7.00508 8.84464 7.31603 8.9516 7.60197C9.05619 7.88156 9.20928 8.22073 9.4553 8.50752L10.9733 7.2053C10.9537 7.18251 10.8994 7.10054 10.8248 6.90124C10.7526 6.70829 10.6885 6.48259 10.6095 6.20216L8.68453 6.74494ZM9.45503 8.5072C9.70878 8.80324 10.0391 9.02208 10.4309 9.1085C10.8171 9.19367 11.184 9.13299 11.4905 9.00672C12.0785 8.76448 12.5205 8.2585 12.7803 7.73562L10.9892 6.84576C10.9407 6.94319 10.8826 7.02273 10.8272 7.0795C10.8 7.10734 10.7762 7.12697 10.7577 7.13996C10.7487 7.14635 10.7415 7.15074 10.7364 7.15359C10.7313 7.15643 10.7287 7.15751 10.7287 7.15749C10.7296 7.15713 10.7808 7.1376 10.8617 7.15544C10.9483 7.17454 10.9838 7.21757 10.9735 7.20562L9.45503 8.5072ZM12.779 7.73813C13.374 6.54897 14.3892 4.79936 15.7852 3.37551C17.1831 1.94984 18.8616 0.948929 20.8115 1.00204L20.8659 -0.997222C18.1424 -1.0714 15.9599 0.340612 14.3571 1.9753C12.7526 3.61181 11.6274 5.56999 10.9904 6.84325L12.779 7.73813ZM20.8136 1.00209C20.8902 1.00402 20.9551 1.03277 20.9996 1.07167C21.0428 1.10949 21.0588 1.14859 21.0623 1.18084L23.0509 0.967404C22.9281 -0.176093 21.9442 -0.970132 20.8638 -0.997278L20.8136 1.00209ZM23.0212 16.6478C24.2056 15.5726 25.7634 14.971 27.3852 14.9683L27.3818 12.9683C25.2692 12.9719 23.2321 13.7551 21.6769 15.1671L23.0212 16.6478ZM27.3835 14.9683C29.1324 14.9683 30.8034 15.6733 32.027 16.9162L33.4522 15.5131C31.8551 13.8907 29.6716 12.9683 27.3835 12.9683V14.9683ZM32.025 16.9141C33.247 18.1626 33.9242 19.8225 33.9206 21.5442L35.9206 21.5484C35.9253 19.2965 35.0391 17.1342 33.4542 15.5151L32.025 16.9141ZM33.9206 21.5484C33.9242 23.2701 33.247 24.93 32.025 26.1785L33.4542 27.5775C35.0391 25.9584 35.9253 23.7961 35.9206 21.5442L33.9206 21.5484ZM32.027 26.1764C31.0911 27.1271 30.1569 28.1002 29.2237 29.0708L30.6655 30.4569C31.6011 29.4837 32.5264 28.52 33.4522 27.5795L32.027 26.1764ZM29.2237 29.0709C28.2816 30.051 26.8348 31.5083 25.619 32.7251C25.012 33.3326 24.4643 33.8784 24.0683 34.2724C23.8703 34.4693 23.7102 34.6283 23.5998 34.738C23.5445 34.7928 23.5016 34.8354 23.4726 34.8642C23.4581 34.8786 23.4471 34.8895 23.4396 34.8969C23.4359 34.9005 23.4331 34.9033 23.4313 34.9052C23.4303 34.9061 23.4296 34.9068 23.4292 34.9072C23.4289 34.9075 23.4288 34.9076 23.4287 34.9078C23.4286 34.9078 23.4286 34.9079 23.4285 34.9079C23.4285 34.9079 23.4285 34.9079 24.1325 35.6182C24.8364 36.3284 24.8364 36.3284 24.8365 36.3283C24.8365 36.3283 24.8366 36.3283 24.8366 36.3282C24.8367 36.3281 24.8369 36.3279 24.8372 36.3277C24.8377 36.3272 24.8384 36.3265 24.8393 36.3255C24.8412 36.3236 24.8441 36.3208 24.8478 36.3171C24.8553 36.3096 24.8665 36.2986 24.8811 36.2841C24.9103 36.2551 24.9534 36.2124 25.0089 36.1573C25.1198 36.0472 25.2803 35.8877 25.4788 35.6902C25.8758 35.2952 26.425 34.748 27.0337 34.1388C28.2492 32.9224 29.7085 31.4526 30.6656 30.4568L29.2237 29.0709ZM23.4522 34.8852C23.1472 35.1683 22.7352 35.3262 22.3138 35.3171L22.2704 37.3166C23.2124 37.3371 24.1276 36.987 24.8127 36.3511L23.4522 34.8852ZM22.3138 35.3171C21.8892 35.3078 21.4896 35.1347 21.2005 34.8415L19.7764 36.2458C20.435 36.9137 21.3317 37.2962 22.2704 37.3166L22.3138 35.3171ZM21.2011 34.8421L12.67 26.1764L11.2447 27.5795L19.7758 36.2452L21.2011 34.8421ZM12.6701 26.1766C10.1469 23.6122 10.1471 19.4803 12.67 16.9173L11.2447 15.5143C7.95541 18.8559 7.9556 24.2367 11.2445 27.5793L12.6701 26.1766ZM12.674 16.9132C13.8337 15.7215 15.4299 15.0216 17.1183 14.9715L17.059 12.9724C14.8576 13.0377 12.7668 13.9501 11.2407 15.5183L12.674 16.9132ZM17.1183 14.9715C18.8068 14.9214 20.4439 15.5254 21.6759 16.6469L23.0222 15.168C21.4029 13.6938 19.2604 12.9071 17.059 12.9724L17.1183 14.9715Z" fill="#84B2CD" mask="url(#path-1-inside-1_454_1820)"/>
</svg>
