<svg width="44" height="45" viewBox="0 0 44 45" fill="none" xmlns="http://www.w3.org/2000/svg">
<path d="M26.3828 3.60601C25.3945 4.0443 24.75 5.03258 24.75 6.11539V11.6154H15.125C6.77188 11.6154 0 18.3873 0 26.7404C0 36.4771 7.00391 40.8255 8.61094 41.7021C8.82578 41.8224 9.06641 41.8654 9.30703 41.8654C10.2438 41.8654 11 41.1005 11 40.1724C11 39.5279 10.6305 38.9349 10.1578 38.4966C9.35 37.7318 8.25 36.2279 8.25 33.6154C8.25 29.0607 11.9453 25.3654 16.5 25.3654H24.75V30.8654C24.75 31.9482 25.3859 32.9365 26.3828 33.3748C27.3797 33.813 28.5312 33.6326 29.3391 32.9107L43.0891 20.5357C43.6648 20.0115 44 19.2724 44 18.4904C44 17.7084 43.6734 16.9693 43.0891 16.4451L29.3391 4.07008C28.945 3.71324 28.4554 3.47923 27.9302 3.39679C27.405 3.31435 26.8672 3.38707 26.3828 3.60601Z" fill="#84B2CD"/>
</svg>
