<svg width="29" height="27" viewBox="0 0 29 27" fill="none" xmlns="http://www.w3.org/2000/svg">
<path d="M16.008 1.32042L18.4443 7.38734C18.7481 8.14396 19.4582 8.65989 20.2717 8.71505L26.7946 9.15734C28.1591 9.24986 28.7142 10.9585 27.6647 11.8354L22.6476 16.0273C22.0219 16.5501 21.7507 17.3849 21.9496 18.1756L23.5446 24.5158C23.8783 25.8421 22.4248 26.8982 21.2665 26.171L15.7294 22.6948C15.0389 22.2612 14.1611 22.2612 13.4706 22.6948L7.93352 26.171C6.77523 26.8982 5.32173 25.8421 5.6554 24.5158L7.25043 18.1756C7.44935 17.3848 7.17811 16.5501 6.55241 16.0273L1.53528 11.8354C0.48576 10.9585 1.04095 9.24986 2.40545 9.15734L8.92829 8.71505C9.74178 8.65989 10.4519 8.14396 10.7557 7.38734L13.192 1.32041C13.7017 0.0512898 15.4983 0.051291 16.008 1.32042Z" fill="#FFFAEA" stroke="#FEF0BF" stroke-width="0.606897"/>
</svg>
