<svg width="46" height="44" viewBox="0 0 46 44" fill="none" xmlns="http://www.w3.org/2000/svg">
<path d="M25.3199 2.11887L29.3343 12.1155C29.8349 13.3622 31.005 14.2123 32.3454 14.3032L43.0933 15.032C45.3416 15.1844 46.2564 17.9999 44.5271 19.4447L36.2602 26.3518C35.2293 27.2132 34.7823 28.5887 35.1101 29.8916L37.7383 40.3386C38.2881 42.524 35.8931 44.264 33.9845 43.0658L24.861 37.338C23.7232 36.6236 22.2768 36.6236 21.139 37.338L12.0155 43.0658C10.1069 44.264 7.71195 42.524 8.26173 40.3386L10.8899 29.8916C11.2177 28.5887 10.7707 27.2132 9.73976 26.3518L1.47291 19.4447C-0.256411 17.9999 0.658387 15.1844 2.90671 15.032L13.6546 14.3032C14.995 14.2123 16.1651 13.3622 16.6657 12.1155L20.6801 2.11887C21.5198 0.0276999 24.4802 0.0276995 25.3199 2.11887Z" fill="#FEDF74" stroke="#FEDF74"/>
</svg>
