<svg width="30" height="29" viewBox="0 0 30 29" fill="none" xmlns="http://www.w3.org/2000/svg">
<path d="M13.6337 1.99868C14.273 0.406504 16.527 0.406505 17.1663 1.99868L19.7134 8.34137C19.9857 9.01938 20.622 9.48171 21.351 9.53114L28.1703 9.99352C29.8821 10.1096 30.5786 12.2532 29.262 13.3533L24.0168 17.7357C23.4561 18.2042 23.213 18.9522 23.3913 19.6608L25.0588 26.2892C25.4774 27.9532 23.6539 29.278 22.2008 28.3657L16.4121 24.7315C15.7933 24.343 15.0067 24.343 14.3879 24.7315L8.59918 28.3657C7.14606 29.278 5.32257 27.9532 5.74117 26.2892L7.4087 19.6608C7.58696 18.9522 7.3439 18.2042 6.7832 17.7357L1.53803 13.3533C0.221357 12.2532 0.917866 10.1096 2.62969 9.99352L9.44903 9.53114C10.178 9.48171 10.8143 9.01938 11.0866 8.34137L13.6337 1.99868Z" fill="#FEDF74"/>
</svg>
