<svg width="29" height="27" viewBox="0 0 29 27" fill="none" xmlns="http://www.w3.org/2000/svg">
<path d="M12.9928 1.32041C13.5025 0.0512898 15.2991 0.051291 15.8087 1.32042L18.245 7.38734C18.5489 8.14396 19.259 8.65989 20.0725 8.71505L26.5953 9.15734C27.9598 9.24986 28.515 10.9585 27.4655 11.8354L22.4484 16.0273C21.8227 16.5501 21.5514 17.3849 21.7504 18.1756L23.3454 24.5158C23.679 25.8421 22.2255 26.8982 21.0673 26.171L15.5302 22.6948C14.8397 22.2612 13.9619 22.2612 13.2714 22.6948L7.7343 26.171C6.57601 26.8982 5.12252 25.8421 5.45618 24.5158L7.05121 18.1756C7.25013 17.3848 6.97889 16.5501 6.35319 16.0273L1.33606 11.8354C0.286542 10.9585 0.84173 9.24986 2.20623 9.15734L8.72907 8.71505C9.54256 8.65989 10.2527 8.14396 10.5565 7.38734L12.9928 1.32041Z" fill="url(#paint0_linear_448_800)" stroke="#FEF0BF" stroke-width="0.606897"/>
<defs>
<linearGradient id="paint0_linear_448_800" x1="28" y1="15" x2="0.999997" y2="15" gradientUnits="userSpaceOnUse">
<stop offset="0.402054" stop-color="#FEF0BF" stop-opacity="0"/>
<stop offset="0.402461" stop-color="#FEF0BF"/>
</linearGradient>
</defs>
</svg>
