<svg width="30" height="29" viewBox="0 0 30 29" fill="none" xmlns="http://www.w3.org/2000/svg">
<path d="M16.872 2.1169L19.419 8.45959C19.7367 9.2506 20.4791 9.78999 21.3295 9.84765L28.1488 10.31C29.5754 10.4068 30.1558 12.1931 29.0586 13.1099L23.8134 17.4923C23.1593 18.0388 22.8757 18.9115 23.0836 19.7382L24.7512 26.3666C25.1 27.7532 23.5804 28.8573 22.3695 28.097L16.5808 24.4628C15.8588 24.0096 14.9412 24.0096 14.2192 24.4628L8.4305 28.097C7.21956 28.8573 5.7 27.7532 6.04882 26.3666L7.71636 19.7382C7.92432 18.9115 7.64075 18.0388 6.98661 17.4923L1.74143 13.1099C0.644208 12.1931 1.22463 10.4068 2.65115 10.31L9.47049 9.84765C10.3209 9.78999 11.0633 9.2506 11.381 8.45959L13.928 2.1169C14.4609 0.790086 16.3391 0.790087 16.872 2.1169Z" fill="#FEF0BF" stroke="#9C9C9C" stroke-width="0.634483"/>
</svg>
