<svg width="26" height="24" viewBox="0 0 26 24" fill="none" xmlns="http://www.w3.org/2000/svg">
<path fill-rule="evenodd" clip-rule="evenodd" d="M12.9998 2.08244C14.4163 0.746951 16.2751 0.00344501 18.2059 0C20.2932 0 22.2862 0.873839 23.7446 2.41229C25.1959 3.95197 26.0043 6.0042 26 8.13778C26.0043 10.2714 25.1959 12.3236 23.7446 13.8633C22.782 14.8787 21.8206 15.9186 20.8543 16.9623C18.8904 19.0842 16.9059 21.2294 14.844 23.249C14.3321 23.7425 13.6459 24.0152 12.941 23.9993C12.2361 23.9834 11.5658 23.6851 11.0758 23.169L2.25386 13.8633C-0.751287 10.6916 -0.751287 5.58396 2.25386 2.41352C3.64257 0.931606 5.54888 0.0659635 7.5601 0.00399953C9.57132 -0.0579644 11.5256 0.688737 12.9998 2.08244Z" fill="#FDCCCC"/>
</svg>
