<svg width="13" height="19" viewBox="0 0 13 19" fill="none" xmlns="http://www.w3.org/2000/svg">
<path d="M7.00396 14.3563L7.00387 14.3562C6.86244 14.2336 6.68483 14.1653 6.5 14.1653C6.31517 14.1653 6.13756 14.2336 5.99613 14.3562L5.99604 14.3563L0.95733 18.7324C0.883481 18.7964 0.795901 18.8354 0.70497 18.8466C0.614106 18.8578 0.521691 18.8411 0.437949 18.7974C0.35404 18.7537 0.281414 18.6841 0.229797 18.5951C0.178154 18.5061 0.150157 18.4021 0.15 18.2951V0.705832C0.15 0.55461 0.205435 0.411816 0.300721 0.308346C0.395624 0.20529 0.521567 0.15 0.65 0.15H12.35C12.4784 0.15 12.6044 0.20529 12.6993 0.308346C12.7946 0.411816 12.85 0.55461 12.85 0.705832V18.295C12.8499 18.402 12.8219 18.5061 12.7702 18.5951C12.7186 18.6841 12.646 18.7537 12.5621 18.7974C12.4783 18.8411 12.3859 18.8578 12.295 18.8466C12.2041 18.8354 12.1165 18.7964 12.0427 18.7324L7.00396 14.3563Z" fill="#E0F1F2" stroke="#84B2CD" stroke-width="0.3"/>
</svg>
