<svg width="22" height="22" viewBox="0 0 22 22" fill="none" xmlns="http://www.w3.org/2000/svg">
<path d="M11 1.83325C13.188 1.83325 15.2865 2.70245 16.8336 4.24962C18.3808 5.7968 19.25 7.89522 19.25 10.0833C19.25 12.9011 17.7137 15.2074 16.0948 16.862C15.2859 17.6796 14.4034 18.4209 13.4585 19.0767L13.068 19.3425L12.8847 19.4644L12.5391 19.6844L12.2311 19.8723L11.8498 20.0942C11.5908 20.2416 11.298 20.3191 11 20.3191C10.702 20.3191 10.4092 20.2416 10.1502 20.0942L9.76892 19.8723L9.29225 19.579L9.11625 19.4644L8.74042 19.2142C7.72106 18.5242 6.77148 17.7364 5.90517 16.862C4.28633 15.2065 2.75 12.9011 2.75 10.0833C2.75 7.89522 3.61919 5.7968 5.16637 4.24962C6.71354 2.70245 8.81196 1.83325 11 1.83325ZM11 7.33325C10.6389 7.33325 10.2813 7.40438 9.94762 7.54258C9.61398 7.68078 9.31082 7.88335 9.05546 8.13871C8.8001 8.39407 8.59753 8.69723 8.45933 9.03087C8.32113 9.36452 8.25 9.72212 8.25 10.0833C8.25 10.4444 8.32113 10.802 8.45933 11.1356C8.59753 11.4693 8.8001 11.7724 9.05546 12.0278C9.31082 12.2832 9.61398 12.4857 9.94762 12.6239C10.2813 12.7621 10.6389 12.8333 11 12.8333C11.7293 12.8333 12.4288 12.5435 12.9445 12.0278C13.4603 11.5121 13.75 10.8126 13.75 10.0833C13.75 9.35391 13.4603 8.65443 12.9445 8.13871C12.4288 7.62298 11.7293 7.33325 11 7.33325Z" fill="white"/>
</svg>
