<svg width="12" height="12" viewBox="0 0 12 12" fill="none" xmlns="http://www.w3.org/2000/svg">
<g clip-path="url(#clip0_952_5838)">
<path d="M6 1C7.19347 1 8.33807 1.47411 9.18198 2.31802C10.0259 3.16193 10.5 4.30653 10.5 5.5C10.5 7.037 9.662 8.295 8.779 9.1975C8.33776 9.64345 7.85639 10.0478 7.341 10.4055L7.128 10.5505L7.028 10.617L6.8395 10.737L6.6715 10.8395L6.4635 10.9605C6.32225 11.0409 6.16252 11.0832 6 11.0832C5.83748 11.0832 5.67775 11.0409 5.5365 10.9605L5.3285 10.8395L5.0685 10.6795L4.9725 10.617L4.7675 10.4805C4.21149 10.1042 3.69353 9.67446 3.221 9.1975C2.338 8.2945 1.5 7.037 1.5 5.5C1.5 4.30653 1.97411 3.16193 2.81802 2.31802C3.66193 1.47411 4.80653 1 6 1ZM6 4C5.80302 4 5.60796 4.0388 5.42597 4.11418C5.24399 4.18956 5.07863 4.30005 4.93934 4.43934C4.80005 4.57863 4.68956 4.74399 4.61418 4.92597C4.5388 5.10796 4.5 5.30302 4.5 5.5C4.5 5.69698 4.5388 5.89204 4.61418 6.07403C4.68956 6.25601 4.80005 6.42137 4.93934 6.56066C5.07863 6.69995 5.24399 6.81044 5.42597 6.88582C5.60796 6.9612 5.80302 7 6 7C6.39782 7 6.77936 6.84196 7.06066 6.56066C7.34196 6.27936 7.5 5.89782 7.5 5.5C7.5 5.10218 7.34196 4.72064 7.06066 4.43934C6.77936 4.15804 6.39782 4 6 4Z" fill="#61422E"/>
</g>
<defs>
<clipPath id="clip0_952_5838">
<rect width="12" height="12" fill="white"/>
</clipPath>
</defs>
</svg>
