<svg width="165" height="40" viewBox="0 0 165 40" fill="none" xmlns="http://www.w3.org/2000/svg">
<path d="M6.40503 6.07106C9.63596 -2.12362 21.5178 -1.99004 24.5559 6.27513C27.6249 14.6244 39.6777 14.6235 42.7804 6.28621C45.8568 -1.98016 57.7651 -2.09526 60.9736 6.12273L66.2805 19.7153C70.1009 29.5005 62.7261 40 52.0326 40H15.2592C4.5513 40 -2.81994 29.4686 1.03842 19.6825L6.40503 6.07106Z" fill="#E0F1F2"/>
<path d="M33.9081 31.9805C28.0611 31.9805 23.9713 35.1345 23.9713 40C30.9364 40 28.0611 40 33.9081 40C39.7552 40 36.7871 40 43.3807 40C43.3807 35.1345 39.7552 31.9805 33.9081 31.9805Z" fill="#84B2CD"/>
<path d="M77.6404 24.196H81.9516V35.6513H80.7431V34.3074H78.8488V35.8433H77.6404V24.196ZM82.5231 30.2916H87.0629V24.516C85.8055 24.6013 84.4501 24.6813 82.9967 24.7559C82.9314 24.3933 82.8497 24.0093 82.7517 23.604C86.1158 23.508 89.2185 23.2894 92.06 22.948L92.3049 24.116C91.1237 24.228 89.7901 24.3346 88.304 24.436V30.2916H92.8275V31.4596H88.304V35.8433C88.304 37.1019 87.7325 37.7419 86.5894 37.7632C85.8926 37.7632 85.0271 37.7579 83.9928 37.7472C83.9384 37.3206 83.8513 36.8619 83.7316 36.3713C84.7985 36.4566 85.615 36.4993 86.1811 36.4993C86.769 36.4993 87.0629 36.1793 87.0629 35.5393V31.4596H82.5231V30.2916ZM80.7431 25.3639H78.8488V33.1395H80.7431V25.3639ZM89.1859 29.1237C89.9697 27.7904 90.6012 26.5478 91.0802 25.3959L92.3213 25.9719C91.6136 27.3585 90.9278 28.5851 90.2637 29.6517L89.1859 29.1237ZM83.209 26.0359L84.3031 25.5559C84.9672 26.7505 85.5442 27.9024 86.0341 29.0117L84.793 29.6357C84.314 28.3771 83.786 27.1771 83.209 26.0359Z" fill="#333333"/>
<path d="M99.583 25.3799C100.759 24.5053 101.766 23.46 102.604 22.2441L103.747 22.4521C103.551 22.7401 103.355 23.012 103.159 23.268H107.666V24.148C107.329 24.5533 107.002 24.9213 106.687 25.2519H109.904V30.4196H108.826V30.1476H101.608V30.4196H100.53V26.0359C100.378 26.1532 100.231 26.2652 100.089 26.3719C99.9368 26.0305 99.7681 25.6999 99.583 25.3799ZM101.053 32.5315H109.349V38.1632H108.254V37.5072H102.147V38.1632H101.053V32.5315ZM95.3371 24.244H99.2401V35.5233H98.1623V34.6114H96.4149V35.7793H95.3371V24.244ZM98.1623 25.2679H96.4149V33.5875H98.1623V25.2679ZM102.147 36.6113H108.254V35.4434H102.147V36.6113ZM108.254 33.4275H102.147V34.5794H108.254V33.4275ZM106.36 24.148H102.457C102.12 24.5426 101.777 24.9106 101.428 25.2519H105.446C105.772 24.8893 106.077 24.5213 106.36 24.148ZM105.723 29.3157H108.826V28.0998H105.723V29.3157ZM108.826 26.0839H105.723V27.2998H108.826V26.0839ZM101.608 27.2998H104.678V26.0839H101.608V27.2998ZM101.608 29.3157H104.678V28.0998H101.608V29.3157ZM101.804 31.0596C101.368 31.7636 100.868 32.4835 100.302 33.2195L99.5014 32.5795C99.9804 32.0142 100.449 31.3369 100.906 30.5476L101.804 31.0596ZM109.365 30.5956C109.855 31.1929 110.317 31.8436 110.753 32.5475L109.838 33.1235C109.403 32.3662 108.967 31.6836 108.532 31.0756L109.365 30.5956ZM103.6 30.2916C103.97 30.8783 104.286 31.4542 104.547 32.0195L103.551 32.4675C103.236 31.7209 102.958 31.1236 102.718 30.6756L103.6 30.2916ZM106.409 30.2596C106.649 30.633 106.981 31.1983 107.405 31.9555L106.458 32.4355C106.11 31.6996 105.81 31.1183 105.56 30.6916L106.409 30.2596Z" fill="#333333"/>
<path d="M113.638 34.0514H120.023V32.8515H112.626V31.8596H120.023V30.6756H113.687V29.7157H120.023V28.6277H115.875V29.0437H114.732V25.6039H120.023V24.548H112.675V23.556H120.023V22.3081H121.232V23.556H128.564V24.548H121.232V25.6039H126.523V29.0437H125.38V28.6277H121.232V29.7157H126.882V31.8596H128.695V32.8515H126.882V35.7793H125.706V35.0114H121.232V35.9553C121.232 37.2353 120.6 37.8806 119.337 37.8912C118.739 37.8912 117.955 37.8806 116.986 37.8592C116.942 37.4966 116.877 37.0539 116.79 36.5313C117.639 36.638 118.396 36.6913 119.06 36.6913C119.702 36.6913 120.023 36.3713 120.023 35.7313V35.0114H113.638V34.0514ZM121.232 34.0514H125.706V32.8515H121.232V34.0514ZM125.706 30.6756H121.232V31.8596H125.706V30.6756ZM125.38 26.4998H121.232V27.7318H125.38V26.4998ZM115.875 27.7318H120.023V26.4998H115.875V27.7318Z" fill="#333333"/>
<path d="M131.057 24.276V23.156H137.377V24.276L134.83 27.1398C135.015 27.3211 135.194 27.5025 135.368 27.6838L134.715 28.2438H137.606V29.3157C137.584 29.401 137.562 29.4917 137.54 29.5877C138.934 29.193 140.148 28.6757 141.182 28.0358C140.453 27.3851 139.854 26.6385 139.386 25.7959C138.928 26.4465 138.439 27.0492 137.916 27.6038C137.731 27.3158 137.491 27.0172 137.197 26.7078C138.351 25.4172 139.304 23.972 140.055 22.3721L141.182 22.6601C141.03 22.9907 140.872 23.3107 140.708 23.62H145.771V24.7079C145.096 25.9985 144.22 27.1025 143.142 28.0198C144.176 28.6597 145.368 29.129 146.718 29.4277C146.424 29.8223 146.212 30.1956 146.081 30.5476C144.546 30.121 143.234 29.5343 142.146 28.7877C140.948 29.609 139.549 30.233 137.949 30.6596C137.883 30.457 137.736 30.1476 137.508 29.7317C137.334 30.4463 137.094 31.2569 136.789 32.1635C136.669 32.0889 136.294 31.9662 135.662 31.7956C135.935 31.1236 136.174 30.313 136.381 29.3637H134.977V36.0833C134.977 37.2992 134.372 37.9232 133.164 37.9552C132.772 37.9445 132.19 37.9392 131.417 37.9392C131.362 37.5446 131.286 37.1179 131.188 36.6593C131.732 36.7126 132.255 36.7446 132.756 36.7553C133.452 36.7766 133.79 36.4086 133.768 35.6513V31.1236C133.039 32.7982 132.086 34.3394 130.91 35.7473C130.747 35.1394 130.578 34.6807 130.404 34.3714C131.787 32.7182 132.799 31.0489 133.442 29.3637H130.698V28.2438H134.193C133.485 27.4118 132.777 26.6652 132.07 26.0039L132.886 25.2999C133.289 25.6519 133.67 25.9985 134.029 26.3399L135.875 24.276H131.057ZM137.557 31.5556H140.48C140.513 31.1929 140.529 30.8089 140.529 30.4036H141.786C141.786 30.8089 141.765 31.1929 141.721 31.5556H145.738C145.684 32.5048 145.608 33.7901 145.51 35.4114C145.433 36.3606 145.221 37.0006 144.873 37.3312C144.535 37.7152 143.909 37.9019 142.995 37.8912C142.385 37.9019 141.824 37.9019 141.313 37.8912C141.269 37.5179 141.198 37.1126 141.1 36.6753C141.318 36.7179 141.928 36.7446 142.929 36.7553C143.441 36.7553 143.784 36.654 143.958 36.4513C144.132 36.2806 144.247 35.902 144.301 35.3154C144.366 34.2914 144.421 33.4008 144.464 32.6435H141.558C141.035 35.182 139.582 36.9633 137.197 37.9872C137.012 37.6246 136.773 37.2619 136.479 36.8993C138.526 36.0567 139.794 34.6381 140.284 32.6435H137.557V31.5556ZM144.448 24.7079H140.088L140.023 24.8199C140.611 25.8119 141.329 26.6492 142.178 27.3318C143.114 26.5852 143.871 25.7106 144.448 24.7079Z" fill="#333333"/>
<path d="M149.701 23.508C151.508 23.476 153.397 23.2574 155.368 22.8521L155.792 24.052C154.181 24.2866 152.543 24.4626 150.877 24.58V27.0598H155.156V32.9635H154.012V32.2595H150.812C150.632 34.7021 150.061 36.638 149.097 38.0672C148.803 37.7152 148.504 37.3899 148.199 37.0913C149.2 35.7473 149.701 33.5395 149.701 30.4676V23.508ZM156.723 23.604C159.314 23.508 161.671 23.2734 163.794 22.9001L164.235 24.116C161.513 24.4146 159.412 24.6066 157.932 24.692V28.2598H164.545V29.3637H162.014V38.0032H160.79V29.3637H157.932V30.2596C157.932 33.6195 156.979 36.2593 155.074 38.1792C154.758 37.8166 154.448 37.4646 154.143 37.1233C155.863 35.3954 156.723 33.0968 156.723 30.2276V23.604ZM154.012 31.2036V28.1158H150.877C150.877 29.705 150.874 30.7343 150.869 31.2036H154.012Z" fill="#333333"/>
<path d="M96.3222 0.946603H98.4125V17.3297H96.3222V9.82078H80.9935V17.3297H78.9032V0.946603H80.9935V8.1142H96.3222V0.946603Z" fill="#333333"/>
<path d="M122.113 0.946603V9.13815C122.113 10.1052 122.099 10.9869 122.07 11.7833C122.048 12.5797 121.964 13.2944 121.819 13.9272C121.681 14.5601 121.46 15.1111 121.155 15.5805C120.85 16.0498 120.415 16.4409 119.849 16.7537C119.283 17.0595 118.56 17.287 117.682 17.4364C116.811 17.5928 115.737 17.671 114.46 17.671H109.561C108.283 17.671 107.205 17.5928 106.327 17.4364C105.456 17.287 104.738 17.0595 104.172 16.7537C103.605 16.4409 103.166 16.0498 102.854 15.5805C102.549 15.1111 102.324 14.5601 102.179 13.9272C102.041 13.2944 101.962 12.5797 101.94 11.7833C101.918 10.9869 101.907 10.1052 101.907 9.13815V0.946603H103.997V9.13815C103.997 10.1621 104.005 11.0438 104.019 11.7833C104.041 12.5157 104.103 13.1344 104.204 13.6392C104.306 14.1441 104.466 14.5494 104.683 14.8552C104.908 15.1609 105.228 15.3956 105.641 15.5591C106.055 15.7227 106.578 15.8329 107.209 15.8898C107.848 15.9395 108.632 15.9644 109.561 15.9644H114.46C115.381 15.9644 116.162 15.9395 116.8 15.8898C117.439 15.8329 117.962 15.7227 118.368 15.5591C118.782 15.3956 119.101 15.1609 119.326 14.8552C119.551 14.5494 119.714 14.1441 119.816 13.6392C119.925 13.1344 119.987 12.5157 120.001 11.7833C120.016 11.0438 120.023 10.1621 120.023 9.13815L120.012 0.946603H122.113Z" fill="#333333"/>
<path d="M125.608 17.3297V0.946603H127.698V15.6231H140.936V17.3297H125.608Z" fill="#333333"/>
<path d="M163.244 0.946603V9.13815C163.244 10.1052 163.229 10.9869 163.2 11.7833C163.178 12.5797 163.095 13.2944 162.95 13.9272C162.812 14.5601 162.59 15.1111 162.286 15.5805C161.981 16.0498 161.545 16.4409 160.979 16.7537C160.413 17.0595 159.691 17.287 158.813 17.4364C157.942 17.5928 156.868 17.671 155.59 17.671H150.691C149.414 17.671 148.336 17.5928 147.458 17.4364C146.587 17.287 145.868 17.0595 145.302 16.7537C144.736 16.4409 144.297 16.0498 143.985 15.5805C143.68 15.1111 143.455 14.5601 143.31 13.9272C143.172 13.2944 143.092 12.5797 143.07 11.7833C143.049 10.9869 143.038 10.1052 143.038 9.13815V0.946603H145.128V9.13815C145.128 10.1621 145.135 11.0438 145.15 11.7833C145.171 12.5157 145.233 13.1344 145.335 13.6392C145.436 14.1441 145.596 14.5494 145.814 14.8552C146.039 15.1609 146.358 15.3956 146.772 15.5591C147.186 15.7227 147.708 15.8329 148.34 15.8898C148.978 15.9395 149.762 15.9644 150.691 15.9644H155.59C156.512 15.9644 157.292 15.9395 157.931 15.8898C158.57 15.8329 159.092 15.7227 159.499 15.5591C159.912 15.3956 160.232 15.1609 160.457 14.8552C160.682 14.5494 160.845 14.1441 160.946 13.6392C161.055 13.1344 161.117 12.5157 161.132 11.7833C161.146 11.0438 161.153 10.1621 161.153 9.13815L161.142 0.946603H163.244Z" fill="#333333"/>
<path d="M44.4137 6.9196H22.9884L27.6044 17.2444H37.9687L44.4137 6.9196Z" fill="#E0F1F2"/>
</svg>
