<svg width="28" height="20" viewBox="0 0 28 20" fill="none" xmlns="http://www.w3.org/2000/svg">
<path d="M2.51222 20C1.79667 20 1.19933 19.78 0.720222 19.34C0.240074 18.899 0 18.35 0 17.6929V2.30714C0 1.65 0.240074 1.10143 0.720222 0.661428C1.19933 0.220476 1.79667 0 2.51222 0H25.4878C26.2033 0 26.8007 0.220476 27.2798 0.661428C27.7599 1.10143 28 1.65 28 2.30714V17.6929C28 18.35 27.7604 18.8986 27.2813 19.3386C26.8012 19.7795 26.2033 20 25.4878 20H2.51222ZM14 10.1643L1.55556 2.69286V17.6929C1.55556 17.949 1.64526 18.1595 1.82467 18.3243C2.00407 18.489 2.23326 18.5714 2.51222 18.5714H25.4878C25.7667 18.5714 25.9959 18.489 26.1753 18.3243C26.3547 18.1595 26.4444 17.949 26.4444 17.6929V2.69286L14 10.1643ZM14 8.57143L25.9653 1.42857H2.03467L14 8.57143ZM1.55556 2.69286V1.42857V17.6929C1.55556 17.949 1.64526 18.1595 1.82467 18.3243C2.00407 18.489 2.23326 18.5714 2.51222 18.5714H1.55556V2.69286Z" fill="#666666"/>
</svg>
