<svg width="38" height="36" viewBox="0 0 38 36" fill="none" xmlns="http://www.w3.org/2000/svg">
<rect width="36" height="36" rx="18" transform="matrix(-1 0 0 1 37 0)" fill="white"/>
<path fill-rule="evenodd" clip-rule="evenodd" d="M28.5229 16.8728L22.748 10.6619C21.9959 9.85302 20.7304 9.80699 19.9215 10.5591L19.1891 11.2401C18.3802 11.9922 18.3342 13.2577 19.0863 14.0666L20.7324 15.8369L10.8878 15.7809C9.50707 15.773 8.38143 16.8859 8.37357 18.2666C8.36572 19.6473 9.47862 20.7729 10.8593 20.7808L21.2699 20.8401L19.3604 22.8937C18.6083 23.7027 18.6543 24.9681 19.4632 25.7203L20.1956 26.4012C21.0045 27.1534 22.27 27.1073 23.0221 26.2984L28.9112 19.9648C29.6633 19.1558 29.6173 17.8903 28.8084 17.1382L28.5229 16.8728Z" fill="#84B2CD"/>
</svg>
