<svg width="308" height="88" viewBox="0 0 308 88" fill="none" xmlns="http://www.w3.org/2000/svg">
<rect width="308" height="88" rx="43.5" fill="white"/>
<path d="M48.875 24.4995C53.3519 13.0269 69.8158 13.2139 74.0255 24.7852C78.2781 36.4741 94.9789 36.4729 99.2781 24.8007C103.541 13.2278 120.041 13.0666 124.487 24.5718L131.841 43.6015C137.134 57.3007 126.915 72 112.098 72H61.1437C46.3064 72 36.0926 57.256 41.4389 43.5555L48.875 24.4995Z" fill="#E0F1F2"/>
<path d="M86.9843 60.7728C78.8825 60.7728 73.2155 65.1883 73.2155 72C82.8666 72 78.8825 72 86.9843 72C95.0862 72 90.9735 72 100.11 72C100.11 65.1883 95.0862 60.7728 86.9843 60.7728Z" fill="#84B2CD"/>
<path d="M147.581 49.8744H153.555V65.9119H151.881V64.0304H149.256V66.1807H147.581V49.8744ZM154.347 58.4083H160.637V50.3223C158.895 50.4418 157.017 50.5538 155.003 50.6583C154.913 50.1506 154.799 49.613 154.664 49.0456C159.325 48.9112 163.624 48.6051 167.562 48.1273L167.901 49.7624C166.264 49.9192 164.416 50.0685 162.357 50.2104V58.4083H168.625V60.0434H162.357V66.1807C162.357 67.9427 161.565 68.8386 159.981 68.8685C159.016 68.8685 157.817 68.861 156.383 68.8461C156.308 68.2488 156.187 67.6067 156.021 66.9198C157.5 67.0393 158.631 67.099 159.416 67.099C160.23 67.099 160.637 66.651 160.637 65.7551V60.0434H154.347V58.4083ZM151.881 51.5095H149.256V62.3953H151.881V51.5095ZM163.579 56.7732C164.665 54.9066 165.54 53.167 166.204 51.5543L167.924 52.3606C166.943 54.3019 165.993 56.0191 165.073 57.5123L163.579 56.7732ZM155.297 52.4502L156.813 51.7783C157.734 53.4507 158.533 55.0634 159.212 56.6164L157.492 57.4899C156.828 55.7279 156.097 54.048 155.297 52.4502Z" fill="#333333"/>
<path d="M177.986 51.5319C179.615 50.3074 181.01 48.844 182.172 47.1417L183.756 47.4329C183.484 47.8361 183.213 48.2169 182.941 48.5752H189.187V49.8072C188.719 50.3746 188.266 50.8898 187.829 51.3527H192.286V58.5875H190.793V58.2067H180.792V58.5875H179.298V52.4502C179.087 52.6145 178.883 52.7713 178.687 52.9206C178.476 52.4428 178.242 51.9799 177.986 51.5319ZM180.022 61.5441H191.517V69.4285H190.001V68.5101H181.538V69.4285H180.022V61.5441ZM172.103 49.9416H177.511V65.7327H176.017V64.456H173.596V66.0911H172.103V49.9416ZM176.017 51.3751H173.596V63.0224H176.017V51.3751ZM181.538 67.2558H190.001V65.6207H181.538V67.2558ZM190.001 62.7985H181.538V64.4112H190.001V62.7985ZM187.376 49.8072H181.968C181.501 50.3597 181.025 50.8748 180.543 51.3527H186.109C186.562 50.845 186.984 50.3298 187.376 49.8072ZM186.494 57.042H190.793V55.3397H186.494V57.042ZM190.793 52.5174H186.494V54.2197H190.793V52.5174ZM180.792 54.2197H185.046V52.5174H180.792V54.2197ZM180.792 57.042H185.046V55.3397H180.792V57.042ZM181.063 59.4834C180.46 60.469 179.766 61.4769 178.981 62.5073L177.873 61.6113C178.536 60.8199 179.185 59.8717 179.819 58.7667L181.063 59.4834ZM191.54 58.8339C192.219 59.6701 192.86 60.581 193.463 61.5665L192.196 62.3729C191.593 61.3127 190.989 60.357 190.386 59.5058L191.54 58.8339ZM183.552 58.4083C184.065 59.2296 184.503 60.0359 184.865 60.8274L183.484 61.4545C183.047 60.4093 182.662 59.573 182.33 58.9459L183.552 58.4083ZM187.444 58.3635C187.776 58.8861 188.236 59.6776 188.824 60.7378L187.512 61.4097C187.029 60.3794 186.614 59.5656 186.268 58.9683L187.444 58.3635Z" fill="#333333"/>
<path d="M197.461 63.672H206.309V61.9921H196.058V60.6034H206.309V58.9459H197.529V57.6019H206.309V56.0788H200.561V56.6612H198.977V51.8455H206.309V50.3671H196.126V48.9784H206.309V47.2313H207.983V48.9784H218.143V50.3671H207.983V51.8455H215.314V56.6612H213.73V56.0788H207.983V57.6019H215.812V60.6034H218.324V61.9921H215.812V66.0911H214.183V65.0159H207.983V66.3375C207.983 68.1294 207.108 69.0328 205.358 69.0477C204.528 69.0477 203.442 69.0328 202.1 69.0029C202.039 68.4952 201.949 67.8755 201.828 67.1438C203.005 67.2931 204.053 67.3678 204.973 67.3678C205.863 67.3678 206.309 66.9198 206.309 66.0239V65.0159H197.461V63.672ZM207.983 63.672H214.183V61.9921H207.983V63.672ZM214.183 58.9459H207.983V60.6034H214.183V58.9459ZM213.73 53.0998H207.983V54.8245H213.73V53.0998ZM200.561 54.8245H206.309V53.0998H200.561V54.8245Z" fill="#333333"/>
<path d="M221.598 49.9864V48.4184H230.355V49.9864L226.825 53.9957C227.081 54.2496 227.33 54.5034 227.571 54.7573L226.666 55.5413H230.671V57.042C230.641 57.1614 230.611 57.2884 230.581 57.4227C232.512 56.8702 234.194 56.146 235.627 55.2501C234.616 54.3392 233.786 53.2939 233.138 52.1142C232.504 53.0251 231.825 53.8688 231.101 54.6453C230.845 54.2421 230.513 53.824 230.106 53.391C231.705 51.5841 233.025 49.5608 234.066 47.3209L235.627 47.7241C235.416 48.187 235.197 48.635 234.971 49.068H241.985V50.5911C241.05 52.398 239.836 53.9435 238.342 55.2277C239.775 56.1236 241.427 56.7807 243.298 57.1988C242.89 57.7513 242.596 58.2739 242.415 58.7667C240.288 58.1694 238.47 57.3481 236.962 56.3028C235.303 57.4526 233.364 58.3262 231.147 58.9235C231.056 58.6398 230.852 58.2067 230.536 57.6243C230.294 58.6248 229.962 59.7597 229.54 61.0289C229.374 60.9244 228.854 60.7527 227.979 60.5138C228.356 59.573 228.688 58.4382 228.974 57.1092H227.028V66.5166C227.028 68.2189 226.191 69.0925 224.517 69.1373C223.974 69.1224 223.167 69.1149 222.095 69.1149C222.02 68.5624 221.914 67.9651 221.779 67.323C222.533 67.3977 223.257 67.4425 223.951 67.4574C224.916 67.4873 225.384 66.9721 225.354 65.9119V59.573C224.343 61.9174 223.023 64.0752 221.394 66.0463C221.168 65.1951 220.934 64.553 220.693 64.12C222.608 61.8054 224.011 59.4685 224.901 57.1092H221.1V55.5413H225.942C224.962 54.3765 223.981 53.3312 223.001 52.4054L224.132 51.4199C224.69 51.9127 225.218 52.398 225.716 52.8758L228.273 49.9864H221.598ZM230.604 60.1778H234.654C234.699 59.6701 234.722 59.1325 234.722 58.5651H236.464C236.464 59.1325 236.434 59.6701 236.374 60.1778H241.94C241.865 61.5068 241.759 63.3062 241.623 65.5759C241.518 66.9049 241.223 67.8008 240.741 68.2637C240.273 68.8013 239.406 69.0626 238.139 69.0477C237.294 69.0626 236.517 69.0626 235.808 69.0477C235.748 68.5251 235.649 67.9576 235.514 67.3454C235.815 67.4051 236.66 67.4425 238.048 67.4574C238.757 67.4574 239.232 67.3155 239.474 67.0318C239.715 66.7929 239.873 66.2628 239.949 65.4415C240.039 64.008 240.115 62.7611 240.175 61.7009H236.147C235.423 65.2548 233.409 67.7486 230.106 69.1821C229.849 68.6744 229.517 68.1667 229.11 67.659C231.946 66.4793 233.704 64.4933 234.382 61.7009H230.604V60.1778ZM240.152 50.5911H234.111L234.02 50.7479C234.835 52.1366 235.831 53.3088 237.007 54.2645C238.304 53.2192 239.353 51.9948 240.152 50.5911Z" fill="#333333"/>
<path d="M247.431 48.9112C249.935 48.8664 252.553 48.5603 255.283 47.9929L255.872 49.6728C253.639 50.0013 251.369 50.2477 249.061 50.4119V53.8837H254.989V62.1489H253.405V61.1633H248.97C248.721 64.5829 247.929 67.2931 246.594 69.2941C246.187 68.8013 245.772 68.3459 245.35 67.9278C246.737 66.0463 247.431 62.9552 247.431 58.6547V48.9112ZM257.161 49.0456C260.752 48.9112 264.018 48.5827 266.959 48.0601L267.57 49.7624C263.799 50.1805 260.887 50.4493 258.836 50.5687V55.5637H268V57.1092H264.493V69.2045H262.796V57.1092H258.836V58.3635C258.836 63.0672 257.516 66.763 254.876 69.4509C254.438 68.9432 254.008 68.4504 253.586 67.9726C255.97 65.5535 257.161 62.3355 257.161 58.3187V49.0456ZM253.405 59.685V55.3621H249.061C249.061 57.587 249.057 59.028 249.049 59.685H253.405Z" fill="#333333"/>
<path d="M173.467 17.3252H176.364V40.2616H173.467V29.7491H152.227V40.2616H149.331V17.3252H152.227V27.3599H173.467V17.3252Z" fill="#333333"/>
<path d="M209.204 17.3252V28.7934C209.204 30.1473 209.184 31.3817 209.144 32.4967C209.114 33.6116 208.998 34.6121 208.797 35.4981C208.606 36.3841 208.299 37.1556 207.877 37.8126C207.454 38.4697 206.851 39.0172 206.067 39.4552C205.282 39.8833 204.281 40.2018 203.065 40.4109C201.858 40.6299 200.369 40.7394 198.599 40.7394H191.811C190.041 40.7394 188.548 40.6299 187.331 40.4109C186.124 40.2018 185.128 39.8833 184.344 39.4552C183.559 39.0172 182.951 38.4697 182.519 37.8126C182.096 37.1556 181.784 36.3841 181.583 35.4981C181.392 34.6121 181.282 33.6116 181.251 32.4967C181.221 31.3817 181.206 30.1473 181.206 28.7934V17.3252H184.102V28.7934C184.102 30.2269 184.113 31.4613 184.133 32.4967C184.163 33.522 184.248 34.3881 184.389 35.0949C184.53 35.8017 184.751 36.3692 185.053 36.7972C185.365 37.2253 185.807 37.5538 186.38 37.7828C186.954 38.0117 187.678 38.166 188.553 38.2457C189.438 38.3154 190.524 38.3502 191.811 38.3502H198.599C199.877 38.3502 200.958 38.3154 201.843 38.2457C202.728 38.166 203.452 38.0117 204.015 37.7828C204.588 37.5538 205.031 37.2253 205.342 36.7972C205.654 36.3692 205.88 35.8017 206.021 35.0949C206.172 34.3881 206.258 33.522 206.278 32.4967C206.298 31.4613 206.308 30.2269 206.308 28.7934L206.293 17.3252H209.204Z" fill="#333333"/>
<path d="M214.047 40.2616V17.3252H216.943V37.8724H235.287V40.2616H214.047Z" fill="#333333"/>
<path d="M266.196 17.3252V28.7934C266.196 30.1473 266.176 31.3817 266.136 32.4967C266.106 33.6116 265.99 34.6121 265.789 35.4981C265.598 36.3841 265.291 37.1556 264.869 37.8126C264.446 38.4697 263.843 39.0172 263.058 39.4552C262.274 39.8833 261.273 40.2018 260.056 40.4109C258.85 40.6299 257.361 40.7394 255.591 40.7394H248.803C247.033 40.7394 245.539 40.6299 244.323 40.4109C243.116 40.2018 242.12 39.8833 241.336 39.4552C240.551 39.0172 239.943 38.4697 239.51 37.8126C239.088 37.1556 238.776 36.3841 238.575 35.4981C238.384 34.6121 238.273 33.6116 238.243 32.4967C238.213 31.3817 238.198 30.1473 238.198 28.7934V17.3252H241.094V28.7934C241.094 30.2269 241.104 31.4613 241.125 32.4967C241.155 33.522 241.24 34.3881 241.381 35.0949C241.522 35.8017 241.743 36.3692 242.045 36.7972C242.356 37.2253 242.799 37.5538 243.372 37.7828C243.945 38.0117 244.67 38.166 245.544 38.2457C246.429 38.3154 247.516 38.3502 248.803 38.3502H255.591C256.868 38.3502 257.95 38.3154 258.835 38.2457C259.72 38.166 260.444 38.0117 261.007 37.7828C261.58 37.5538 262.023 37.2253 262.334 36.7972C262.646 36.3692 262.872 35.8017 263.013 35.0949C263.164 34.3881 263.249 33.522 263.27 32.4967C263.29 31.4613 263.3 30.2269 263.3 28.7934L263.285 17.3252H266.196Z" fill="#333333"/>
<path d="M101.541 25.6874H71.8536L78.2497 40.1421H92.6108L101.541 25.6874Z" fill="#E0F1F2"/>
</svg>
