<svg width="36" height="36" viewBox="0 0 36 36" fill="none" xmlns="http://www.w3.org/2000/svg">
<rect width="36" height="36" rx="18" transform="matrix(-1 0 0 1 36 0)" fill="white"/>
<path fill-rule="evenodd" clip-rule="evenodd" d="M27.5229 16.8728L21.748 10.6619C20.9959 9.85302 19.7304 9.80699 18.9215 10.5591L18.1891 11.2401C17.3802 11.9922 17.3342 13.2577 18.0863 14.0666L19.7324 15.8369L9.88776 15.7809C8.50707 15.773 7.38143 16.8859 7.37357 18.2666C7.36572 19.6473 8.47862 20.7729 9.85931 20.7808L20.2699 20.8401L18.3604 22.8937C17.6083 23.7027 17.6543 24.9681 18.4632 25.7203L19.1956 26.4012C20.0045 27.1534 21.27 27.1073 22.0221 26.2984L27.9112 19.9648C28.6633 19.1558 28.6173 17.8903 27.8084 17.1382L27.5229 16.8728Z" fill="#84B2CD"/>
</svg>
