<svg width="38" height="36" viewBox="0 0 38 36" fill="none" xmlns="http://www.w3.org/2000/svg">
<rect width="36" height="36" rx="18" transform="matrix(-1 0 0 1 37 0)" fill="#61422E"/>
<path fill-rule="evenodd" clip-rule="evenodd" d="M28.5227 16.8728L22.7478 10.6619C21.9957 9.853 20.7302 9.80697 19.9213 10.5591L19.1889 11.24C18.38 11.9922 18.334 13.2577 19.0861 14.0666L20.7321 15.8369L10.8875 15.7809C9.50684 15.773 8.3812 16.8859 8.37334 18.2666C8.36548 19.6473 9.47838 20.7729 10.8591 20.7808L21.2697 20.84L19.3602 22.8937C18.608 23.7026 18.6541 24.9681 19.463 25.7203L20.1953 26.4012C21.0043 27.1533 22.2697 27.1073 23.0219 26.2984L28.9109 19.9647C29.6631 19.1558 29.617 17.8903 28.8081 17.1382L28.5227 16.8728Z" fill="#E1E1CE"/>
</svg>
