<svg width="20" height="19" viewBox="0 0 20 19" fill="none" xmlns="http://www.w3.org/2000/svg">
<path d="M9.01757 0.908204C9.37277 0.0305987 10.6272 0.0305986 10.9824 0.908204L12.7332 5.23398C12.9566 5.78593 13.478 6.16098 14.0739 6.20106L18.7614 6.51641C19.7163 6.58065 20.0974 7.76209 19.369 8.36592L15.7635 11.3548C15.3042 11.7355 15.1044 12.3443 15.2508 12.9216L16.397 17.4423C16.628 18.3533 15.6196 19.091 14.807 18.5848L10.8279 16.1062C10.3216 15.7909 9.6784 15.7909 9.17213 16.1062L5.19302 18.5848C4.38038 19.091 3.37197 18.3533 3.60296 17.4423L4.7492 12.9216C4.89557 12.3443 4.69575 11.7355 4.23646 11.3548L0.630991 8.36592C-0.0974191 7.76209 0.283724 6.58065 1.23862 6.51641L5.92615 6.20106C6.52195 6.16098 7.04337 5.78593 7.26676 5.23398L9.01757 0.908204Z" fill="#E0F1F2" stroke="#84B2CD" stroke-width="0.5"/>
</svg>
