<svg width="228" height="56" viewBox="0 0 228 56" fill="none" xmlns="http://www.w3.org/2000/svg">
<path d="M8.87504 8.49949C13.3519 -2.97307 29.8158 -2.78606 34.0255 8.78518C38.2781 20.4741 54.9789 20.4729 59.2781 8.8007C63.5408 -2.77222 80.0413 -2.93337 84.4872 8.57183L91.8406 27.6015C97.1342 41.3007 86.9155 56 72.0983 56H21.1437C6.30644 56 -3.90741 41.256 1.43887 27.5555L8.87504 8.49949Z" fill="#E0F1F2"/>
<path d="M46.9843 44.7728C38.8825 44.7728 33.2155 49.1883 33.2155 56C42.8666 56 38.8825 56 46.9843 56C55.0862 56 50.9735 56 60.1098 56C60.1098 49.1883 55.0862 44.7728 46.9843 44.7728Z" fill="#84B2CD"/>
<path d="M107.581 33.8744H113.555V49.9119H111.881V48.0304H109.256V50.1807H107.581V33.8744ZM114.347 42.4083H120.637V34.3223C118.895 34.4418 117.017 34.5538 115.003 34.6583C114.913 34.1506 114.8 33.6131 114.664 33.0456C119.325 32.9112 123.624 32.6051 127.562 32.1273L127.901 33.7624C126.264 33.9192 124.416 34.0685 122.357 34.2104V42.4083H128.625V44.0434H122.357V50.1807C122.357 51.9427 121.565 52.8387 119.981 52.8685C119.016 52.8685 117.817 52.861 116.383 52.8461C116.308 52.2488 116.187 51.6067 116.021 50.9198C117.5 51.0393 118.631 51.099 119.416 51.099C120.23 51.099 120.637 50.651 120.637 49.7551V44.0434H114.347V42.4083ZM111.881 35.5095H109.256V46.3953H111.881V35.5095ZM123.579 40.7732C124.665 38.9066 125.54 37.167 126.204 35.5543L127.924 36.3606C126.943 38.3019 125.993 40.0191 125.073 41.5123L123.579 40.7732ZM115.297 36.4502L116.813 35.7783C117.734 37.4507 118.533 39.0634 119.212 40.6164L117.492 41.4899C116.828 39.7279 116.097 38.048 115.297 36.4502Z" fill="#333333"/>
<path d="M137.986 35.5319C139.615 34.3074 141.01 32.844 142.172 31.1417L143.756 31.4329C143.484 31.8361 143.213 32.2169 142.941 32.5752H149.187V33.8072C148.719 34.3746 148.266 34.8898 147.829 35.3527H152.286V42.5875H150.793V42.2067H140.792V42.5875H139.298V36.4502C139.087 36.6145 138.883 36.7713 138.687 36.9206C138.476 36.4428 138.242 35.9799 137.986 35.5319ZM140.022 45.5441H151.517V53.4285H150.001V52.5101H141.538V53.4285H140.022V45.5441ZM132.103 33.9416H137.511V49.7327H136.017V48.456H133.596V50.0911H132.103V33.9416ZM136.017 35.3751H133.596V47.0224H136.017V35.3751ZM141.538 51.2558H150.001V49.6207H141.538V51.2558ZM150.001 46.7985H141.538V48.4112H150.001V46.7985ZM147.376 33.8072H141.968C141.501 34.3597 141.025 34.8748 140.543 35.3527H146.109C146.562 34.845 146.984 34.3298 147.376 33.8072ZM146.494 41.042H150.793V39.3397H146.494V41.042ZM150.793 36.5174H146.494V38.2197H150.793V36.5174ZM140.792 38.2197H145.046V36.5174H140.792V38.2197ZM140.792 41.042H145.046V39.3397H140.792V41.042ZM141.063 43.4834C140.46 44.469 139.766 45.4769 138.981 46.5073L137.873 45.6113C138.536 44.8199 139.185 43.8717 139.819 42.7667L141.063 43.4834ZM151.54 42.8339C152.219 43.6701 152.86 44.581 153.463 45.5665L152.196 46.3729C151.593 45.3127 150.989 44.357 150.386 43.5058L151.54 42.8339ZM143.552 42.4083C144.065 43.2296 144.503 44.0359 144.865 44.8274L143.484 45.4545C143.047 44.4092 142.662 43.573 142.33 42.9459L143.552 42.4083ZM147.444 42.3635C147.776 42.8861 148.236 43.6776 148.824 44.7378L147.512 45.4097C147.029 44.3794 146.614 43.5656 146.268 42.9683L147.444 42.3635Z" fill="#333333"/>
<path d="M157.461 47.672H166.309V45.9921H156.058V44.6034H166.309V42.9459H157.529V41.6019H166.309V40.0788H160.561V40.6612H158.977V35.8455H166.309V34.3671H156.126V32.9784H166.309V31.2313H167.983V32.9784H178.143V34.3671H167.983V35.8455H175.314V40.6612H173.73V40.0788H167.983V41.6019H175.812V44.6034H178.324V45.9921H175.812V50.0911H174.183V49.0159H167.983V50.3375C167.983 52.1294 167.108 53.0328 165.358 53.0477C164.528 53.0477 163.442 53.0328 162.1 53.0029C162.039 52.4952 161.949 51.8755 161.828 51.1438C163.005 51.2931 164.053 51.3678 164.973 51.3678C165.863 51.3678 166.309 50.9198 166.309 50.0239V49.0159H157.461V47.672ZM167.983 47.672H174.183V45.9921H167.983V47.672ZM174.183 42.9459H167.983V44.6034H174.183V42.9459ZM173.73 37.0998H167.983V38.8245H173.73V37.0998ZM160.561 38.8245H166.309V37.0998H160.561V38.8245Z" fill="#333333"/>
<path d="M181.598 33.9864V32.4184H190.355V33.9864L186.825 37.9957C187.081 38.2496 187.33 38.5034 187.571 38.7573L186.666 39.5413H190.671V41.042C190.641 41.1614 190.611 41.2884 190.581 41.4227C192.512 40.8702 194.194 40.146 195.627 39.2501C194.616 38.3392 193.786 37.2939 193.138 36.1142C192.504 37.0251 191.825 37.8688 191.101 38.6453C190.845 38.2421 190.513 37.824 190.106 37.391C191.705 35.5841 193.025 33.5608 194.066 31.3209L195.627 31.7241C195.416 32.187 195.197 32.635 194.971 33.068H201.985V34.5911C201.05 36.398 199.836 37.9435 198.342 39.2277C199.775 40.1236 201.427 40.7807 203.298 41.1988C202.89 41.7513 202.596 42.2739 202.415 42.7667C200.288 42.1694 198.47 41.3481 196.962 40.3028C195.303 41.4526 193.364 42.3262 191.147 42.9235C191.056 42.6398 190.852 42.2067 190.536 41.6243C190.294 42.6248 189.962 43.7597 189.54 45.0289C189.374 44.9244 188.854 44.7527 187.979 44.5138C188.356 43.573 188.688 42.4382 188.974 41.1092H187.028V50.5166C187.028 52.2189 186.191 53.0925 184.517 53.1373C183.974 53.1224 183.167 53.1149 182.095 53.1149C182.02 52.5624 181.914 51.9651 181.779 51.323C182.533 51.3977 183.257 51.4425 183.951 51.4574C184.916 51.4873 185.384 50.9721 185.354 49.9119V43.573C184.343 45.9174 183.023 48.0752 181.394 50.0463C181.168 49.1951 180.934 48.553 180.693 48.12C182.608 45.8054 184.011 43.4685 184.901 41.1092H181.1V39.5413H185.942C184.962 38.3765 183.981 37.3312 183.001 36.4054L184.132 35.4199C184.69 35.9127 185.218 36.398 185.716 36.8758L188.273 33.9864H181.598ZM190.604 44.1778H194.654C194.699 43.6701 194.722 43.1325 194.722 42.5651H196.464C196.464 43.1325 196.434 43.6701 196.374 44.1778H201.94C201.865 45.5068 201.759 47.3062 201.623 49.5759C201.518 50.9049 201.223 51.8008 200.741 52.2637C200.273 52.8013 199.406 53.0626 198.139 53.0477C197.294 53.0626 196.517 53.0626 195.808 53.0477C195.748 52.5251 195.649 51.9576 195.514 51.3454C195.815 51.4051 196.66 51.4425 198.048 51.4574C198.757 51.4574 199.232 51.3155 199.474 51.0318C199.715 50.7929 199.873 50.2628 199.949 49.4415C200.039 48.008 200.115 46.7611 200.175 45.7009H196.147C195.423 49.2548 193.409 51.7486 190.106 53.1821C189.849 52.6744 189.517 52.1667 189.11 51.659C191.946 50.4793 193.704 48.4933 194.382 45.7009H190.604V44.1778ZM200.152 34.5911H194.111L194.02 34.7479C194.835 36.1366 195.831 37.3088 197.007 38.2645C198.304 37.2192 199.353 35.9948 200.152 34.5911Z" fill="#333333"/>
<path d="M207.431 32.9112C209.935 32.8664 212.553 32.5603 215.283 31.9929L215.872 33.6728C213.639 34.0013 211.369 34.2477 209.061 34.4119V37.8837H214.989V46.1489H213.405V45.1633H208.97C208.721 48.5829 207.929 51.2931 206.594 53.2941C206.187 52.8013 205.772 52.3459 205.35 51.9278C206.737 50.0463 207.431 46.9552 207.431 42.6547V32.9112ZM217.161 33.0456C220.752 32.9112 224.018 32.5827 226.959 32.0601L227.57 33.7624C223.799 34.1805 220.887 34.4493 218.836 34.5687V39.5637H228V41.1092H224.493V53.2045H222.796V41.1092H218.836V42.3635C218.836 47.0672 217.516 50.763 214.876 53.4509C214.438 52.9432 214.008 52.4504 213.586 51.9726C215.97 49.5535 217.161 46.3355 217.161 42.3187V33.0456ZM213.405 43.685V39.3621H209.061C209.061 41.587 209.057 43.028 209.049 43.685H213.405Z" fill="#333333"/>
<path d="M133.467 1.32524H136.364V24.2616H133.467V13.7491H112.227V24.2616H109.331V1.32524H112.227V11.3599H133.467V1.32524Z" fill="#333333"/>
<path d="M169.204 1.32524V12.7934C169.204 14.1473 169.184 15.3817 169.144 16.4967C169.114 17.6116 168.998 18.6121 168.797 19.4981C168.606 20.3841 168.299 21.1556 167.877 21.8126C167.454 22.4697 166.851 23.0172 166.067 23.4552C165.282 23.8833 164.281 24.2018 163.065 24.4109C161.858 24.6299 160.369 24.7394 158.599 24.7394H151.811C150.041 24.7394 148.548 24.6299 147.331 24.4109C146.124 24.2018 145.128 23.8833 144.344 23.4552C143.559 23.0172 142.951 22.4697 142.519 21.8126C142.096 21.1556 141.784 20.3841 141.583 19.4981C141.392 18.6121 141.282 17.6116 141.251 16.4967C141.221 15.3817 141.206 14.1473 141.206 12.7934V1.32524H144.102V12.7934C144.102 14.2269 144.113 15.4613 144.133 16.4967C144.163 17.522 144.248 18.3881 144.389 19.0949C144.53 19.8017 144.751 20.3692 145.053 20.7972C145.365 21.2253 145.807 21.5538 146.38 21.7828C146.954 22.0117 147.678 22.166 148.553 22.2457C149.438 22.3154 150.524 22.3502 151.811 22.3502H158.599C159.877 22.3502 160.958 22.3154 161.843 22.2457C162.728 22.166 163.452 22.0117 164.015 21.7828C164.588 21.5538 165.031 21.2253 165.342 20.7972C165.654 20.3692 165.88 19.8017 166.021 19.0949C166.172 18.3881 166.258 17.522 166.278 16.4967C166.298 15.4613 166.308 14.2269 166.308 12.7934L166.293 1.32524H169.204Z" fill="#333333"/>
<path d="M174.047 24.2616V1.32524H176.943V21.8724H195.287V24.2616H174.047Z" fill="#333333"/>
<path d="M226.196 1.32524V12.7934C226.196 14.1473 226.176 15.3817 226.136 16.4967C226.106 17.6116 225.99 18.6121 225.789 19.4981C225.598 20.3841 225.291 21.1556 224.869 21.8126C224.446 22.4697 223.843 23.0172 223.058 23.4552C222.274 23.8833 221.273 24.2018 220.056 24.4109C218.85 24.6299 217.361 24.7394 215.591 24.7394H208.803C207.033 24.7394 205.539 24.6299 204.323 24.4109C203.116 24.2018 202.12 23.8833 201.336 23.4552C200.551 23.0172 199.943 22.4697 199.51 21.8126C199.088 21.1556 198.776 20.3841 198.575 19.4981C198.384 18.6121 198.273 17.6116 198.243 16.4967C198.213 15.3817 198.198 14.1473 198.198 12.7934V1.32524H201.094V12.7934C201.094 14.2269 201.104 15.4613 201.125 16.4967C201.155 17.522 201.24 18.3881 201.381 19.0949C201.522 19.8017 201.743 20.3692 202.045 20.7972C202.356 21.2253 202.799 21.5538 203.372 21.7828C203.945 22.0117 204.67 22.166 205.544 22.2457C206.429 22.3154 207.516 22.3502 208.803 22.3502H215.591C216.868 22.3502 217.95 22.3154 218.835 22.2457C219.72 22.166 220.444 22.0117 221.007 21.7828C221.58 21.5538 222.023 21.2253 222.334 20.7972C222.646 20.3692 222.872 19.8017 223.013 19.0949C223.164 18.3881 223.249 17.522 223.27 16.4967C223.29 15.4613 223.3 14.2269 223.3 12.7934L223.285 1.32524H226.196Z" fill="#333333"/>
<path d="M61.5412 9.68744H31.8536L38.2497 24.1421H52.6108L61.5412 9.68744Z" fill="#E0F1F2"/>
</svg>
