<svg width="24" height="35" viewBox="0 0 24 35" fill="none" xmlns="http://www.w3.org/2000/svg">
<path d="M10.4182 3.96436C7.03131 3.96436 4.28571 6.70995 4.28571 10.0968V18.6392C4.28571 21.2768 7.54272 22.5198 9.3 20.5528V20.5528C9.93831 20.0097 10.9792 18.9408 11.7966 18.9408C12.614 18.9408 13.6105 20.0123 14.2488 20.5554V20.5554C16.2426 22.6019 19.7143 21.1903 19.7143 18.3332V10.3818C19.7143 6.83756 16.8411 3.96436 13.2968 3.96436H10.4182ZM1.2 0H22.8C23.1183 0 23.4235 0.134473 23.6485 0.373837C23.8736 0.6132 24 0.937847 24 1.27636V33.0832C23.9997 33.3234 23.9357 33.5586 23.8153 33.7618C23.6949 33.965 23.5231 34.1279 23.3195 34.2319C23.116 34.3359 22.889 34.3767 22.6646 34.3496C22.4403 34.3225 22.2276 34.2286 22.0512 34.0788L12.7488 26.1653C12.5362 25.9847 12.2721 25.8864 12 25.8864C11.7279 25.8864 11.4638 25.9847 11.2512 26.1653L1.9488 34.0788C1.77235 34.2286 1.55973 34.3225 1.33537 34.3496C1.111 34.3767 0.884006 34.3359 0.680462 34.2319C0.476918 34.1279 0.305087 33.965 0.184717 33.7618C0.0643465 33.5586 0.000321439 33.3234 0 33.0832V1.27636C0 0.937847 0.126428 0.6132 0.351472 0.373837C0.576516 0.134473 0.88174 0 1.2 0Z" fill="#84B2CD"/>
</svg>
