<svg width="34" height="33" viewBox="0 0 34 33" fill="none" xmlns="http://www.w3.org/2000/svg">
<path fill-rule="evenodd" clip-rule="evenodd" d="M0 13.75C0 6.15608 6.15608 0 13.75 0H20.1666C27.7606 0 33.9167 6.15608 33.9167 13.75V15.5833C33.9167 22.1647 28.5814 27.5 22 27.5C17.4087 29.077 18.6522 31.771 19.8478 32.9209C18.5087 33.3152 16.0217 32.1817 15.7826 30.7033C14.8261 28.2392 12.3551 27.5821 11 27.5C4.92486 27.5 0 22.5751 0 16.5V13.75ZM8.70833 16.5C9.97398 16.5 11 15.474 11 14.2083C11 12.9427 9.97398 11.9167 8.70833 11.9167C7.44268 11.9167 6.41666 12.9427 6.41666 14.2083C6.41666 15.474 7.44268 16.5 8.70833 16.5ZM19.25 14.2083C19.25 15.474 18.224 16.5 16.9583 16.5C15.6927 16.5 14.6667 15.474 14.6667 14.2083C14.6667 12.9427 15.6927 11.9167 16.9583 11.9167C18.224 11.9167 19.25 12.9427 19.25 14.2083ZM25.2083 16.5C26.474 16.5 27.5 15.474 27.5 14.2083C27.5 12.9427 26.474 11.9167 25.2083 11.9167C23.9427 11.9167 22.9167 12.9427 22.9167 14.2083C22.9167 15.474 23.9427 16.5 25.2083 16.5Z" fill="#84B2CD"/>
</svg>
