<svg width="52" height="52" viewBox="0 0 52 52" fill="none" xmlns="http://www.w3.org/2000/svg">
<circle cx="26" cy="26" r="25.5" fill="white" stroke="#666666"/>
<g clip-path="url(#clip0_860_3017)">
<path d="M21.5469 13.3356C18.7492 14.3062 16.3366 16.1483 14.6632 18.5913C12.9899 21.0344 12.1441 23.9497 12.2501 26.909C12.3561 29.8683 13.4082 32.7156 15.2521 35.0327C17.0959 37.3498 19.6342 39.0146 22.4941 39.7825C24.8126 40.3808 27.2418 40.4071 29.5728 39.8591C31.6844 39.3848 33.6367 38.3702 35.2384 36.9147C36.9055 35.3536 38.1155 33.3676 38.7384 31.1703C39.4153 28.7808 39.5358 26.268 39.0906 23.8247H26.0706V29.2256H33.6109C33.4602 30.087 33.1373 30.9092 32.6614 31.6429C32.1856 32.3766 31.5666 33.0067 30.8416 33.4956C29.9209 34.1049 28.8829 34.5148 27.7944 34.6988C26.7027 34.9018 25.5829 34.9018 24.4912 34.6988C23.3847 34.4702 22.338 34.0135 21.4178 33.3578C19.9394 32.3113 18.8293 30.8245 18.2459 29.1097C17.6529 27.3627 17.6529 25.4689 18.2459 23.7219C18.6612 22.4974 19.3476 21.3824 20.2541 20.4603C21.2913 19.3857 22.6046 18.6176 24.0497 18.2402C25.4948 17.8628 27.016 17.8907 28.4462 18.3209C29.5636 18.6638 30.5854 19.2631 31.43 20.0709C32.2802 19.2251 33.129 18.3771 33.9762 17.5269C34.4137 17.0697 34.8906 16.6344 35.3216 16.1663C34.0321 14.9665 32.5186 14.0328 30.8678 13.4188C27.8615 12.3272 24.5721 12.2978 21.5469 13.3356Z" fill="white"/>
<path d="M21.5468 13.3356C24.5718 12.2971 27.8612 12.3257 30.8677 13.4165C32.5188 14.0348 34.0316 14.9729 35.3193 16.1772C34.8818 16.6453 34.4202 17.0828 33.974 17.5378C33.1252 18.3851 32.2772 19.2295 31.4299 20.0709C30.5853 19.263 29.5635 18.6637 28.4462 18.3209C27.0164 17.8892 25.4953 17.8596 24.0498 18.2355C22.6043 18.6113 21.2902 19.378 20.2518 20.4515C19.3454 21.3736 18.6589 22.4886 18.2437 23.7131L13.709 20.2022C15.3321 16.9834 18.1425 14.5213 21.5468 13.3356Z" fill="#E33629"/>
<path d="M12.5056 23.6803C12.7492 22.4723 13.1538 21.3024 13.7087 20.2021L18.2434 23.7218C17.6504 25.4688 17.6504 27.3627 18.2434 29.1096C16.7326 30.2763 15.221 31.4488 13.7087 32.6271C12.32 29.8628 11.8965 26.7132 12.5056 23.6803Z" fill="#F8BD00"/>
<path d="M26.0703 23.8225H39.0903C39.5354 26.2658 39.415 28.7786 38.7381 31.1681C38.1152 33.3654 36.9052 35.3514 35.2381 36.9125C33.7747 35.7706 32.3047 34.6375 30.8412 33.4956C31.5668 33.0062 32.1861 32.3754 32.6619 31.6409C33.1378 30.9064 33.4605 30.0834 33.6106 29.2213H26.0703C26.0681 27.4231 26.0703 25.6228 26.0703 23.8225Z" fill="#587DBD"/>
<path d="M13.707 32.6272C15.2193 31.4605 16.7309 30.288 18.2417 29.1097C18.8262 30.8251 19.9379 32.3119 21.418 33.3578C22.341 34.0105 23.39 34.4635 24.498 34.6878C25.5897 34.8908 26.7094 34.8908 27.8011 34.6878C28.8897 34.5038 29.9276 34.094 30.8483 33.4847C32.3117 34.6266 33.7817 35.7597 35.2452 36.9016C33.6437 38.3578 31.6914 39.3732 29.5795 39.8481C27.2486 40.3961 24.8194 40.3698 22.5008 39.7716C20.667 39.2819 18.9541 38.4188 17.4695 37.2362C15.8983 35.9885 14.6149 34.4164 13.707 32.6272Z" fill="#319F43"/>
</g>
<defs>
<clipPath id="clip0_860_3017">
<rect width="28" height="28" fill="white" transform="translate(11.793 12.4147)"/>
</clipPath>
</defs>
</svg>
